<mxfile host="65bd71144e">
    <diagram id="vBu7v42lNUGAjECXIESN" name="Page-1">
        <mxGraphModel dx="6250" dy="5270" grid="1" gridSize="10" guides="1" tooltips="1" connect="1" arrows="1" fold="1" page="1" pageScale="1" pageWidth="850" pageHeight="1100" math="0" shadow="0">
            <root>
                <mxCell id="0"/>
                <mxCell id="1" parent="0"/>
                <mxCell id="84" value="&lt;div style=&quot;color: rgb(247, 241, 255); background-color: rgb(34, 34, 34); font-family: &amp;quot;Ubuntu Mono&amp;quot;, Consolas, &amp;quot;Courier New&amp;quot;, monospace; font-weight: normal; font-size: 14px; line-height: 19px;&quot;&gt;&lt;div&gt;&lt;span style=&quot;color: #fc618d;&quot;&gt;switch&lt;/span&gt;&lt;span style=&quot;color: #f7f1ff;&quot;&gt; &lt;/span&gt;&lt;span style=&quot;color: #8b888f;&quot;&gt;(&lt;/span&gt;&lt;span style=&quot;color: #fd9353;font-style: italic;&quot;&gt;packet_type&lt;/span&gt;&lt;span style=&quot;color: #8b888f;&quot;&gt;)&lt;/span&gt;&lt;/div&gt;&lt;/div&gt;" style="text;whiteSpace=wrap;html=1;fontSize=37;" vertex="1" parent="1">
                    <mxGeometry x="-1260" y="-1840" width="150" height="25" as="geometry"/>
                </mxCell>
                <mxCell id="70" value="&lt;div style=&quot;color: rgb(247, 241, 255); background-color: rgb(34, 34, 34); font-family: &amp;quot;Ubuntu Mono&amp;quot;, Consolas, &amp;quot;Courier New&amp;quot;, monospace; font-weight: normal; font-size: 14px; line-height: 19px;&quot;&gt;&lt;div&gt;&lt;span style=&quot;color: #5ad4e6;font-style: italic;&quot;&gt;void&lt;/span&gt;&lt;span style=&quot;color: #f7f1ff;&quot;&gt; &lt;/span&gt;&lt;span style=&quot;color: #7bd88f;&quot;&gt;sco_receive&lt;/span&gt;&lt;span style=&quot;color: #8b888f;&quot;&gt;(&lt;/span&gt;&lt;span style=&quot;color: #5ad4e6;font-style: italic;&quot;&gt;uint8_t&lt;/span&gt;&lt;span style=&quot;color: #f7f1ff;&quot;&gt; &lt;/span&gt;&lt;span style=&quot;color: #fc618d;&quot;&gt;*&lt;/span&gt;&lt;span style=&quot;color: #f7f1ff;&quot;&gt; &lt;/span&gt;&lt;span style=&quot;color: #fd9353;font-style: italic;&quot;&gt;packet&lt;/span&gt;&lt;span style=&quot;color: #8b888f;&quot;&gt;,&lt;/span&gt;&lt;span style=&quot;color: #f7f1ff;&quot;&gt; &lt;/span&gt;&lt;span style=&quot;color: #5ad4e6;font-style: italic;&quot;&gt;uint16_t&lt;/span&gt;&lt;span style=&quot;color: #f7f1ff;&quot;&gt; &lt;/span&gt;&lt;span style=&quot;color: #fd9353;font-style: italic;&quot;&gt;size&lt;/span&gt;&lt;span style=&quot;color: #8b888f;&quot;&gt;);&lt;/span&gt;&lt;/div&gt;&lt;/div&gt;" style="text;whiteSpace=wrap;html=1;fontSize=37;" vertex="1" parent="1">
                    <mxGeometry x="-1260" y="-1620" width="380" height="30" as="geometry"/>
                </mxCell>
                <mxCell id="67" value="&lt;div style=&quot;color: rgb(247, 241, 255); background-color: rgb(34, 34, 34); font-family: &amp;quot;Ubuntu Mono&amp;quot;, Consolas, &amp;quot;Courier New&amp;quot;, monospace; font-weight: normal; font-size: 14px; line-height: 19px;&quot;&gt;&lt;div&gt;&lt;span style=&quot;color: #5ad4e6;font-style: italic;&quot;&gt;void&lt;/span&gt;&lt;span style=&quot;color: #f7f1ff;&quot;&gt; &lt;/span&gt;&lt;span style=&quot;color: #7bd88f;&quot;&gt;sco_receive&lt;/span&gt;&lt;span style=&quot;color: #8b888f;&quot;&gt;(&lt;/span&gt;&lt;span style=&quot;color: #5ad4e6;font-style: italic;&quot;&gt;uint8_t&lt;/span&gt;&lt;span style=&quot;color: #f7f1ff;&quot;&gt; &lt;/span&gt;&lt;span style=&quot;color: #fc618d;&quot;&gt;*&lt;/span&gt;&lt;span style=&quot;color: #f7f1ff;&quot;&gt; &lt;/span&gt;&lt;span style=&quot;color: #fd9353;font-style: italic;&quot;&gt;packet&lt;/span&gt;&lt;span style=&quot;color: #8b888f;&quot;&gt;,&lt;/span&gt;&lt;span style=&quot;color: #f7f1ff;&quot;&gt; &lt;/span&gt;&lt;span style=&quot;color: #5ad4e6;font-style: italic;&quot;&gt;uint16_t&lt;/span&gt;&lt;span style=&quot;color: #f7f1ff;&quot;&gt; &lt;/span&gt;&lt;span style=&quot;color: #fd9353;font-style: italic;&quot;&gt;size&lt;/span&gt;&lt;span style=&quot;color: #8b888f;&quot;&gt;)&lt;/span&gt;&lt;/div&gt;&lt;div&gt;&lt;span style=&quot;color: #8b888f;&quot;&gt;{&lt;/span&gt;&lt;/div&gt;&lt;div&gt;&lt;span style=&quot;color: #f7f1ff;&quot;&gt;&amp;nbsp; &amp;nbsp; &lt;/span&gt;&lt;span style=&quot;color: #f7f1ff;&quot;&gt;codec_current&lt;/span&gt;&lt;span style=&quot;color: #8b888f;&quot;&gt;-&amp;gt;&lt;/span&gt;&lt;span style=&quot;color: #f7f1ff;&quot;&gt;receive&lt;/span&gt;&lt;span style=&quot;color: #8b888f;&quot;&gt;(&lt;/span&gt;&lt;span style=&quot;color: #fd9353;font-style: italic;&quot;&gt;packet&lt;/span&gt;&lt;span style=&quot;color: #8b888f;&quot;&gt;,&lt;/span&gt;&lt;span style=&quot;color: #f7f1ff;&quot;&gt; &lt;/span&gt;&lt;span style=&quot;color: #fd9353;font-style: italic;&quot;&gt;size&lt;/span&gt;&lt;span style=&quot;color: #8b888f;&quot;&gt;);&lt;/span&gt;&lt;/div&gt;&lt;div&gt;&lt;span style=&quot;color: #8b888f;&quot;&gt;}&lt;/span&gt;&lt;/div&gt;&lt;/div&gt;" style="text;whiteSpace=wrap;html=1;fontSize=37;" vertex="1" parent="1">
                    <mxGeometry x="-1260" y="-1560" width="350" height="90" as="geometry"/>
                </mxCell>
                <mxCell id="64" value="&lt;div style=&quot;color: rgb(247, 241, 255); background-color: rgb(34, 34, 34); font-family: &amp;quot;Ubuntu Mono&amp;quot;, Consolas, &amp;quot;Courier New&amp;quot;, monospace; font-weight: normal; font-size: 14px; line-height: 19px;&quot;&gt;&lt;div&gt;&lt;span style=&quot;color: #fc618d;font-style: italic;&quot;&gt;static&lt;/span&gt;&lt;span style=&quot;color: #f7f1ff;&quot;&gt; &lt;/span&gt;&lt;span style=&quot;color: #fc618d;font-style: italic;&quot;&gt;const&lt;/span&gt;&lt;span style=&quot;color: #f7f1ff;&quot;&gt; &lt;/span&gt;&lt;span style=&quot;color: #5ad4e6;font-style: italic;&quot;&gt;codec_support_t&lt;/span&gt;&lt;span style=&quot;color: #f7f1ff;&quot;&gt; &lt;/span&gt;&lt;span style=&quot;color: #f7f1ff;&quot;&gt;codec_cvsd&lt;/span&gt;&lt;span style=&quot;color: #f7f1ff;&quot;&gt; &lt;/span&gt;&lt;span style=&quot;color: #fc618d;&quot;&gt;=&lt;/span&gt;&lt;/div&gt;&lt;div&gt;&lt;span style=&quot;color: #f7f1ff;&quot;&gt; &lt;/span&gt;&lt;span style=&quot;color: #8b888f;&quot;&gt;{&lt;/span&gt;&lt;/div&gt;&lt;div&gt;&lt;span style=&quot;color: #f7f1ff;&quot;&gt;&amp;nbsp; &amp;nbsp; &amp;nbsp; &amp;nbsp; .&lt;/span&gt;&lt;span style=&quot;color: #f7f1ff;&quot;&gt;init&lt;/span&gt;&lt;span style=&quot;color: #f7f1ff;&quot;&gt; &amp;nbsp; &amp;nbsp; &amp;nbsp; &amp;nbsp; &lt;/span&gt;&lt;span style=&quot;color: #fc618d;&quot;&gt;=&lt;/span&gt;&lt;span style=&quot;color: #f7f1ff;&quot;&gt; &lt;/span&gt;&lt;span style=&quot;color: #fc618d;&quot;&gt;&amp;amp;&lt;/span&gt;&lt;span style=&quot;color: #7bd88f;&quot;&gt;cvsd_init&lt;/span&gt;&lt;span style=&quot;color: #8b888f;&quot;&gt;,&lt;/span&gt;&lt;/div&gt;&lt;div&gt;&lt;span style=&quot;color: #f7f1ff;&quot;&gt;&amp;nbsp; &amp;nbsp; &amp;nbsp; &amp;nbsp; .&lt;/span&gt;&lt;span style=&quot;color: #f7f1ff;&quot;&gt;receive&lt;/span&gt;&lt;span style=&quot;color: #f7f1ff;&quot;&gt; &amp;nbsp; &amp;nbsp; &amp;nbsp;&lt;/span&gt;&lt;span style=&quot;color: #fc618d;&quot;&gt;=&lt;/span&gt;&lt;span style=&quot;color: #f7f1ff;&quot;&gt; &lt;/span&gt;&lt;span style=&quot;color: #fc618d;&quot;&gt;&amp;amp;&lt;/span&gt;&lt;span style=&quot;color: #7bd88f;&quot;&gt;cvsd_receive&lt;/span&gt;&lt;span style=&quot;color: #8b888f;&quot;&gt;,&lt;/span&gt;&lt;/div&gt;&lt;div&gt;&lt;span style=&quot;color: #f7f1ff;&quot;&gt;&amp;nbsp; &amp;nbsp; &amp;nbsp; &amp;nbsp; .&lt;/span&gt;&lt;span style=&quot;color: #f7f1ff;&quot;&gt;fill_payload&lt;/span&gt;&lt;span style=&quot;color: #f7f1ff;&quot;&gt; &lt;/span&gt;&lt;span style=&quot;color: #fc618d;&quot;&gt;=&lt;/span&gt;&lt;span style=&quot;color: #f7f1ff;&quot;&gt; &lt;/span&gt;&lt;span style=&quot;color: #fc618d;&quot;&gt;&amp;amp;&lt;/span&gt;&lt;span style=&quot;color: #7bd88f;&quot;&gt;cvsd_fill_payload&lt;/span&gt;&lt;span style=&quot;color: #8b888f;&quot;&gt;,&lt;/span&gt;&lt;/div&gt;&lt;div&gt;&lt;span style=&quot;color: #f7f1ff;&quot;&gt;&amp;nbsp; &amp;nbsp; &amp;nbsp; &amp;nbsp; .&lt;/span&gt;&lt;span style=&quot;color: #f7f1ff;&quot;&gt;close&lt;/span&gt;&lt;span style=&quot;color: #f7f1ff;&quot;&gt; &amp;nbsp; &amp;nbsp; &amp;nbsp; &amp;nbsp;&lt;/span&gt;&lt;span style=&quot;color: #fc618d;&quot;&gt;=&lt;/span&gt;&lt;span style=&quot;color: #f7f1ff;&quot;&gt; &lt;/span&gt;&lt;span style=&quot;color: #fc618d;&quot;&gt;&amp;amp;&lt;/span&gt;&lt;span style=&quot;color: #7bd88f;&quot;&gt;cvsd_close&lt;/span&gt;&lt;span style=&quot;color: #8b888f;&quot;&gt;,&lt;/span&gt;&lt;/div&gt;&lt;div&gt;&lt;span style=&quot;color: #f7f1ff;&quot;&gt;&amp;nbsp; &amp;nbsp; &amp;nbsp; &amp;nbsp; .&lt;/span&gt;&lt;span style=&quot;color: #f7f1ff;&quot;&gt;sample_rate&lt;/span&gt;&lt;span style=&quot;color: #f7f1ff;&quot;&gt; &lt;/span&gt;&lt;span style=&quot;color: #fc618d;&quot;&gt;=&lt;/span&gt;&lt;span style=&quot;color: #f7f1ff;&quot;&gt; &lt;/span&gt;&lt;span style=&quot;color: #5ad4e6;&quot;&gt;SAMPLE_RATE_8KHZ&lt;/span&gt;&lt;/div&gt;&lt;div&gt;&lt;span style=&quot;color: #8b888f;&quot;&gt;};&lt;/span&gt;&lt;/div&gt;&lt;/div&gt;" style="text;whiteSpace=wrap;html=1;fontSize=37;" vertex="1" parent="1">
                    <mxGeometry x="-1260" y="-1390" width="310" height="160" as="geometry"/>
                </mxCell>
                <mxCell id="59" value="&lt;div style=&quot;color: rgb(247, 241, 255); background-color: rgb(34, 34, 34); font-family: &amp;quot;Ubuntu Mono&amp;quot;, Consolas, &amp;quot;Courier New&amp;quot;, monospace; font-weight: normal; font-size: 14px; line-height: 19px;&quot;&gt;&lt;div&gt;&lt;span style=&quot;color: #fc618d;font-style: italic;&quot;&gt;static&lt;/span&gt;&lt;span style=&quot;color: #f7f1ff;&quot;&gt; &lt;/span&gt;&lt;span style=&quot;color: #5ad4e6;font-style: italic;&quot;&gt;void&lt;/span&gt;&lt;span style=&quot;color: #f7f1ff;&quot;&gt; &lt;/span&gt;&lt;span style=&quot;color: #7bd88f;&quot;&gt;cvsd_receive&lt;/span&gt;&lt;span style=&quot;color: #8b888f;&quot;&gt;(&lt;/span&gt;&lt;span style=&quot;color: #fc618d;font-style: italic;&quot;&gt;const&lt;/span&gt;&lt;span style=&quot;color: #f7f1ff;&quot;&gt; &lt;/span&gt;&lt;span style=&quot;color: #5ad4e6;font-style: italic;&quot;&gt;uint8_t&lt;/span&gt;&lt;span style=&quot;color: #f7f1ff;&quot;&gt; &lt;/span&gt;&lt;span style=&quot;color: #fc618d;&quot;&gt;*&lt;/span&gt;&lt;span style=&quot;color: #f7f1ff;&quot;&gt; &lt;/span&gt;&lt;span style=&quot;color: #fd9353;font-style: italic;&quot;&gt;packet&lt;/span&gt;&lt;span style=&quot;color: #8b888f;&quot;&gt;,&lt;/span&gt;&lt;span style=&quot;color: #f7f1ff;&quot;&gt; &lt;/span&gt;&lt;span style=&quot;color: #5ad4e6;font-style: italic;&quot;&gt;uint16_t&lt;/span&gt;&lt;span style=&quot;color: #f7f1ff;&quot;&gt; &lt;/span&gt;&lt;span style=&quot;color: #fd9353;font-style: italic;&quot;&gt;size&lt;/span&gt;&lt;span style=&quot;color: #8b888f;&quot;&gt;)&lt;/span&gt;&lt;/div&gt;&lt;div&gt;&lt;span style=&quot;color: #8b888f;&quot;&gt;{&lt;/span&gt;&lt;/div&gt;&lt;br&gt;&lt;div&gt;&lt;span style=&quot;color: #f7f1ff;&quot;&gt;&amp;nbsp; &amp;nbsp; &lt;/span&gt;&lt;span style=&quot;color: #5ad4e6;font-style: italic;&quot;&gt;int16_t&lt;/span&gt;&lt;span style=&quot;color: #f7f1ff;&quot;&gt; &lt;/span&gt;&lt;span style=&quot;color: #f7f1ff;&quot;&gt;audio_frame_out&lt;/span&gt;&lt;span style=&quot;color: #8b888f;&quot;&gt;[&lt;/span&gt;&lt;span style=&quot;color: #948ae3;&quot;&gt;128&lt;/span&gt;&lt;span style=&quot;color: #8b888f;&quot;&gt;];&lt;/span&gt;&lt;/div&gt;&lt;br&gt;&lt;div&gt;&lt;span style=&quot;color: #f7f1ff;&quot;&gt;&amp;nbsp; &amp;nbsp; &lt;/span&gt;&lt;span style=&quot;color: #fc618d;&quot;&gt;if&lt;/span&gt;&lt;span style=&quot;color: #f7f1ff;&quot;&gt; &lt;/span&gt;&lt;span style=&quot;color: #8b888f;&quot;&gt;(&lt;/span&gt;&lt;span style=&quot;color: #fd9353;font-style: italic;&quot;&gt;size&lt;/span&gt;&lt;span style=&quot;color: #f7f1ff;&quot;&gt; &lt;/span&gt;&lt;span style=&quot;color: #fc618d;&quot;&gt;&amp;gt;&lt;/span&gt;&lt;span style=&quot;color: #f7f1ff;&quot;&gt; &lt;/span&gt;&lt;span style=&quot;color: #fc618d;&quot;&gt;sizeof&lt;/span&gt;&lt;span style=&quot;color: #8b888f;&quot;&gt;(&lt;/span&gt;&lt;span style=&quot;color: #f7f1ff;&quot;&gt;audio_frame_out&lt;/span&gt;&lt;span style=&quot;color: #8b888f;&quot;&gt;)){&lt;/span&gt;&lt;/div&gt;&lt;div&gt;&lt;span style=&quot;color: #f7f1ff;&quot;&gt;&amp;nbsp; &amp;nbsp; &amp;nbsp; &amp;nbsp; &lt;/span&gt;&lt;span style=&quot;color: #7bd88f;&quot;&gt;printf&lt;/span&gt;&lt;span style=&quot;color: #8b888f;&quot;&gt;(&lt;/span&gt;&lt;span style=&quot;color: #8b888f;&quot;&gt;&quot;&lt;/span&gt;&lt;span style=&quot;color: #fce566;&quot;&gt;cvsd_receive: SCO packet larger than local output buffer - dropping data.&lt;/span&gt;&lt;span style=&quot;color: #948ae3;&quot;&gt;\n&lt;/span&gt;&lt;span style=&quot;color: #8b888f;&quot;&gt;&quot;&lt;/span&gt;&lt;span style=&quot;color: #8b888f;&quot;&gt;);&lt;/span&gt;&lt;/div&gt;&lt;div&gt;&lt;span style=&quot;color: #f7f1ff;&quot;&gt;&amp;nbsp; &amp;nbsp; &amp;nbsp; &amp;nbsp; &lt;/span&gt;&lt;span style=&quot;color: #fc618d;&quot;&gt;return&lt;/span&gt;&lt;span style=&quot;color: #8b888f;&quot;&gt;;&lt;/span&gt;&lt;/div&gt;&lt;div&gt;&lt;span style=&quot;color: #f7f1ff;&quot;&gt;&amp;nbsp; &amp;nbsp; &lt;/span&gt;&lt;span style=&quot;color: #8b888f;&quot;&gt;}&lt;/span&gt;&lt;/div&gt;&lt;br&gt;&lt;div&gt;&lt;span style=&quot;color: #f7f1ff;&quot;&gt;&amp;nbsp; &amp;nbsp; &lt;/span&gt;&lt;span style=&quot;color: #fc618d;font-style: italic;&quot;&gt;const&lt;/span&gt;&lt;span style=&quot;color: #f7f1ff;&quot;&gt; &lt;/span&gt;&lt;span style=&quot;color: #5ad4e6;font-style: italic;&quot;&gt;int&lt;/span&gt;&lt;span style=&quot;color: #f7f1ff;&quot;&gt; &lt;/span&gt;&lt;span style=&quot;color: #f7f1ff;&quot;&gt;audio_bytes_read&lt;/span&gt;&lt;span style=&quot;color: #f7f1ff;&quot;&gt; &lt;/span&gt;&lt;span style=&quot;color: #fc618d;&quot;&gt;=&lt;/span&gt;&lt;span style=&quot;color: #f7f1ff;&quot;&gt; &lt;/span&gt;&lt;span style=&quot;color: #fd9353;font-style: italic;&quot;&gt;size&lt;/span&gt;&lt;span style=&quot;color: #f7f1ff;&quot;&gt; &lt;/span&gt;&lt;span style=&quot;color: #fc618d;&quot;&gt;-&lt;/span&gt;&lt;span style=&quot;color: #f7f1ff;&quot;&gt; &lt;/span&gt;&lt;span style=&quot;color: #948ae3;&quot;&gt;3&lt;/span&gt;&lt;span style=&quot;color: #8b888f;&quot;&gt;;&lt;/span&gt;&lt;/div&gt;&lt;div&gt;&lt;span style=&quot;color: #f7f1ff;&quot;&gt;&amp;nbsp; &amp;nbsp; &lt;/span&gt;&lt;span style=&quot;color: #fc618d;font-style: italic;&quot;&gt;const&lt;/span&gt;&lt;span style=&quot;color: #f7f1ff;&quot;&gt; &lt;/span&gt;&lt;span style=&quot;color: #5ad4e6;font-style: italic;&quot;&gt;int&lt;/span&gt;&lt;span style=&quot;color: #f7f1ff;&quot;&gt; &lt;/span&gt;&lt;span style=&quot;color: #f7f1ff;&quot;&gt;num_samples&lt;/span&gt;&lt;span style=&quot;color: #f7f1ff;&quot;&gt; &lt;/span&gt;&lt;span style=&quot;color: #fc618d;&quot;&gt;=&lt;/span&gt;&lt;span style=&quot;color: #f7f1ff;&quot;&gt; &lt;/span&gt;&lt;span style=&quot;color: #f7f1ff;&quot;&gt;audio_bytes_read&lt;/span&gt;&lt;span style=&quot;color: #f7f1ff;&quot;&gt; &lt;/span&gt;&lt;span style=&quot;color: #fc618d;&quot;&gt;/&lt;/span&gt;&lt;span style=&quot;color: #f7f1ff;&quot;&gt; &lt;/span&gt;&lt;span style=&quot;color: #5ad4e6;&quot;&gt;BYTES_PER_FRAME&lt;/span&gt;&lt;span style=&quot;color: #8b888f;&quot;&gt;;&lt;/span&gt;&lt;/div&gt;&lt;br&gt;&lt;div&gt;&lt;span style=&quot;color: #8b888f;&quot;&gt;&amp;nbsp; &amp;nbsp; &lt;/span&gt;&lt;span style=&quot;color: #69676c;font-style: italic;&quot;&gt;// convert into host endian&lt;/span&gt;&lt;/div&gt;&lt;div&gt;&lt;span style=&quot;color: #f7f1ff;&quot;&gt;&amp;nbsp; &amp;nbsp; &lt;/span&gt;&lt;span style=&quot;color: #5ad4e6;font-style: italic;&quot;&gt;int16_t&lt;/span&gt;&lt;span style=&quot;color: #f7f1ff;&quot;&gt; &lt;/span&gt;&lt;span style=&quot;color: #f7f1ff;&quot;&gt;audio_frame_in&lt;/span&gt;&lt;span style=&quot;color: #8b888f;&quot;&gt;[&lt;/span&gt;&lt;span style=&quot;color: #948ae3;&quot;&gt;128&lt;/span&gt;&lt;span style=&quot;color: #8b888f;&quot;&gt;];&lt;/span&gt;&lt;/div&gt;&lt;div&gt;&lt;span style=&quot;color: #f7f1ff;&quot;&gt;&amp;nbsp; &amp;nbsp; &lt;/span&gt;&lt;span style=&quot;color: #5ad4e6;font-style: italic;&quot;&gt;int&lt;/span&gt;&lt;span style=&quot;color: #f7f1ff;&quot;&gt; &lt;/span&gt;&lt;span style=&quot;color: #f7f1ff;&quot;&gt;i&lt;/span&gt;&lt;span style=&quot;color: #8b888f;&quot;&gt;;&lt;/span&gt;&lt;/div&gt;&lt;div&gt;&lt;span style=&quot;color: #f7f1ff;&quot;&gt;&amp;nbsp; &amp;nbsp; &lt;/span&gt;&lt;span style=&quot;color: #fc618d;&quot;&gt;for&lt;/span&gt;&lt;span style=&quot;color: #f7f1ff;&quot;&gt; &lt;/span&gt;&lt;span style=&quot;color: #8b888f;&quot;&gt;(&lt;/span&gt;&lt;span style=&quot;color: #f7f1ff;&quot;&gt;i&lt;/span&gt;&lt;span style=&quot;color: #fc618d;&quot;&gt;=&lt;/span&gt;&lt;span style=&quot;color: #948ae3;&quot;&gt;0&lt;/span&gt;&lt;span style=&quot;color: #8b888f;&quot;&gt;;&lt;/span&gt;&lt;span style=&quot;color: #f7f1ff;&quot;&gt;i&lt;/span&gt;&lt;span style=&quot;color: #fc618d;&quot;&gt;&amp;lt;&lt;/span&gt;&lt;span style=&quot;color: #f7f1ff;&quot;&gt;num_samples&lt;/span&gt;&lt;span style=&quot;color: #8b888f;&quot;&gt;;&lt;/span&gt;&lt;span style=&quot;color: #f7f1ff;&quot;&gt;i&lt;/span&gt;&lt;span style=&quot;color: #fc618d;&quot;&gt;++&lt;/span&gt;&lt;span style=&quot;color: #8b888f;&quot;&gt;){&lt;/span&gt;&lt;/div&gt;&lt;div&gt;&lt;span style=&quot;color: #f7f1ff;&quot;&gt;&amp;nbsp; &amp;nbsp; &amp;nbsp; &amp;nbsp; &lt;/span&gt;&lt;span style=&quot;color: #f7f1ff;&quot;&gt;audio_frame_in&lt;/span&gt;&lt;span style=&quot;color: #8b888f;&quot;&gt;[&lt;/span&gt;&lt;span style=&quot;color: #f7f1ff;&quot;&gt;i&lt;/span&gt;&lt;span style=&quot;color: #8b888f;&quot;&gt;]&lt;/span&gt;&lt;span style=&quot;color: #f7f1ff;&quot;&gt; &lt;/span&gt;&lt;span style=&quot;color: #fc618d;&quot;&gt;=&lt;/span&gt;&lt;span style=&quot;color: #f7f1ff;&quot;&gt; &lt;/span&gt;&lt;span style=&quot;color: #7bd88f;&quot;&gt;little_endian_read_16&lt;/span&gt;&lt;span style=&quot;color: #8b888f;&quot;&gt;(&lt;/span&gt;&lt;span style=&quot;color: #fd9353;font-style: italic;&quot;&gt;packet&lt;/span&gt;&lt;span style=&quot;color: #8b888f;&quot;&gt;,&lt;/span&gt;&lt;span style=&quot;color: #f7f1ff;&quot;&gt; &lt;/span&gt;&lt;span style=&quot;color: #948ae3;&quot;&gt;3&lt;/span&gt;&lt;span style=&quot;color: #f7f1ff;&quot;&gt; &lt;/span&gt;&lt;span style=&quot;color: #fc618d;&quot;&gt;+&lt;/span&gt;&lt;span style=&quot;color: #f7f1ff;&quot;&gt; &lt;/span&gt;&lt;span style=&quot;color: #f7f1ff;&quot;&gt;i&lt;/span&gt;&lt;span style=&quot;color: #f7f1ff;&quot;&gt; &lt;/span&gt;&lt;span style=&quot;color: #fc618d;&quot;&gt;*&lt;/span&gt;&lt;span style=&quot;color: #f7f1ff;&quot;&gt; &lt;/span&gt;&lt;span style=&quot;color: #948ae3;&quot;&gt;2&lt;/span&gt;&lt;span style=&quot;color: #8b888f;&quot;&gt;);&lt;/span&gt;&lt;/div&gt;&lt;div&gt;&lt;span style=&quot;color: #f7f1ff;&quot;&gt;&amp;nbsp; &amp;nbsp; &lt;/span&gt;&lt;span style=&quot;color: #8b888f;&quot;&gt;}&lt;/span&gt;&lt;/div&gt;&lt;br&gt;&lt;div&gt;&lt;span style=&quot;color: #8b888f;&quot;&gt;&amp;nbsp; &amp;nbsp; &lt;/span&gt;&lt;span style=&quot;color: #69676c;font-style: italic;&quot;&gt;// treat packet as bad frame if controller does not report 'all good'&lt;/span&gt;&lt;/div&gt;&lt;div&gt;&lt;span style=&quot;color: #f7f1ff;&quot;&gt;&amp;nbsp; &amp;nbsp; &lt;/span&gt;&lt;span style=&quot;color: #5ad4e6;font-style: italic;&quot;&gt;bool&lt;/span&gt;&lt;span style=&quot;color: #f7f1ff;&quot;&gt; &lt;/span&gt;&lt;span style=&quot;color: #f7f1ff;&quot;&gt;bad_frame&lt;/span&gt;&lt;span style=&quot;color: #f7f1ff;&quot;&gt; &lt;/span&gt;&lt;span style=&quot;color: #fc618d;&quot;&gt;=&lt;/span&gt;&lt;span style=&quot;color: #f7f1ff;&quot;&gt; &lt;/span&gt;&lt;span style=&quot;color: #8b888f;&quot;&gt;(&lt;/span&gt;&lt;span style=&quot;color: #fd9353;font-style: italic;&quot;&gt;packet&lt;/span&gt;&lt;span style=&quot;color: #8b888f;&quot;&gt;[&lt;/span&gt;&lt;span style=&quot;color: #948ae3;&quot;&gt;1&lt;/span&gt;&lt;span style=&quot;color: #8b888f;&quot;&gt;]&lt;/span&gt;&lt;span style=&quot;color: #f7f1ff;&quot;&gt; &lt;/span&gt;&lt;span style=&quot;color: #fc618d;&quot;&gt;&amp;amp;&lt;/span&gt;&lt;span style=&quot;color: #f7f1ff;&quot;&gt; &lt;/span&gt;&lt;span style=&quot;color: #fc618d;&quot;&gt;0x&lt;/span&gt;&lt;span style=&quot;color: #948ae3;&quot;&gt;30&lt;/span&gt;&lt;span style=&quot;color: #8b888f;&quot;&gt;)&lt;/span&gt;&lt;span style=&quot;color: #f7f1ff;&quot;&gt; &lt;/span&gt;&lt;span style=&quot;color: #fc618d;&quot;&gt;!=&lt;/span&gt;&lt;span style=&quot;color: #f7f1ff;&quot;&gt; &lt;/span&gt;&lt;span style=&quot;color: #948ae3;&quot;&gt;0&lt;/span&gt;&lt;span style=&quot;color: #8b888f;&quot;&gt;;&lt;/span&gt;&lt;/div&gt;&lt;br&gt;&lt;div&gt;&lt;span style=&quot;color: #f7f1ff;&quot;&gt;&amp;nbsp; &amp;nbsp; &lt;/span&gt;&lt;span style=&quot;color: #7bd88f;&quot;&gt;btstack_cvsd_plc_process_data&lt;/span&gt;&lt;span style=&quot;color: #8b888f;&quot;&gt;(&lt;/span&gt;&lt;span style=&quot;color: #fc618d;&quot;&gt;&amp;amp;&lt;/span&gt;&lt;span style=&quot;color: #f7f1ff;&quot;&gt;cvsd_plc_state&lt;/span&gt;&lt;span style=&quot;color: #8b888f;&quot;&gt;,&lt;/span&gt;&lt;span style=&quot;color: #f7f1ff;&quot;&gt; &lt;/span&gt;&lt;span style=&quot;color: #f7f1ff;&quot;&gt;bad_frame&lt;/span&gt;&lt;span style=&quot;color: #8b888f;&quot;&gt;,&lt;/span&gt;&lt;span style=&quot;color: #f7f1ff;&quot;&gt; &lt;/span&gt;&lt;span style=&quot;color: #f7f1ff;&quot;&gt;audio_frame_in&lt;/span&gt;&lt;span style=&quot;color: #8b888f;&quot;&gt;,&lt;/span&gt;&lt;span style=&quot;color: #f7f1ff;&quot;&gt; &lt;/span&gt;&lt;span style=&quot;color: #f7f1ff;&quot;&gt;num_samples&lt;/span&gt;&lt;span style=&quot;color: #8b888f;&quot;&gt;,&lt;/span&gt;&lt;span style=&quot;color: #f7f1ff;&quot;&gt; &lt;/span&gt;&lt;span style=&quot;color: #f7f1ff;&quot;&gt;audio_frame_out&lt;/span&gt;&lt;span style=&quot;color: #8b888f;&quot;&gt;);&lt;/span&gt;&lt;/div&gt;&lt;div&gt;&lt;span style=&quot;color: #f7f1ff;&quot;&gt;&amp;nbsp; &amp;nbsp; &lt;/span&gt;&lt;span style=&quot;color: #7bd88f;&quot;&gt;btstack_ring_buffer_write&lt;/span&gt;&lt;span style=&quot;color: #8b888f;&quot;&gt;(&lt;/span&gt;&lt;span style=&quot;color: #fc618d;&quot;&gt;&amp;amp;&lt;/span&gt;&lt;span style=&quot;color: #f7f1ff;&quot;&gt;audio_output_ring_buffer&lt;/span&gt;&lt;span style=&quot;color: #8b888f;&quot;&gt;,&lt;/span&gt;&lt;span style=&quot;color: #f7f1ff;&quot;&gt; &lt;/span&gt;&lt;span style=&quot;color: #8b888f;&quot;&gt;(&lt;/span&gt;&lt;span style=&quot;color: #5ad4e6;font-style: italic;&quot;&gt;uint8_t&lt;/span&gt;&lt;span style=&quot;color: #f7f1ff;&quot;&gt; &lt;/span&gt;&lt;span style=&quot;color: #fc618d;&quot;&gt;*&lt;/span&gt;&lt;span style=&quot;color: #8b888f;&quot;&gt;)&lt;/span&gt;&lt;span style=&quot;color: #f7f1ff;&quot;&gt;audio_frame_out&lt;/span&gt;&lt;span style=&quot;color: #8b888f;&quot;&gt;,&lt;/span&gt;&lt;span style=&quot;color: #f7f1ff;&quot;&gt; &lt;/span&gt;&lt;span style=&quot;color: #f7f1ff;&quot;&gt;audio_bytes_read&lt;/span&gt;&lt;span style=&quot;color: #8b888f;&quot;&gt;);&lt;/span&gt;&lt;/div&gt;&lt;div&gt;&lt;span style=&quot;color: #8b888f;&quot;&gt;}&lt;/span&gt;&lt;/div&gt;&lt;/div&gt;" style="text;whiteSpace=wrap;html=1;fontSize=37;" vertex="1" parent="1">
                    <mxGeometry x="-1250" y="-1180" width="400" height="660" as="geometry"/>
                </mxCell>
                <mxCell id="81" style="edgeStyle=orthogonalEdgeStyle;html=1;exitX=0.553;exitY=0.667;exitDx=0;exitDy=0;entryX=0.6;entryY=0.111;entryDx=0;entryDy=0;entryPerimeter=0;strokeWidth=1;fontSize=37;exitPerimeter=0;" edge="1" parent="1" source="70" target="67">
                    <mxGeometry relative="1" as="geometry"/>
                </mxCell>
                <mxCell id="82" style="edgeStyle=orthogonalEdgeStyle;html=1;exitX=0.842;exitY=0.667;exitDx=0;exitDy=0;strokeWidth=1;fontSize=37;exitPerimeter=0;" edge="1" parent="1" source="70">
                    <mxGeometry relative="1" as="geometry">
                        <mxPoint x="-940" y="-1550" as="targetPoint"/>
                        <Array as="points"/>
                    </mxGeometry>
                </mxCell>
                <mxCell id="63" style="edgeStyle=orthogonalEdgeStyle;html=1;exitX=0.8;exitY=0.031;exitDx=0;exitDy=0;strokeWidth=1;fontSize=37;entryX=0.425;entryY=0.877;entryDx=0;entryDy=0;entryPerimeter=0;exitPerimeter=0;" edge="1" parent="1" source="59" target="59">
                    <mxGeometry relative="1" as="geometry">
                        <mxPoint x="-750" y="-600" as="targetPoint"/>
                        <Array as="points">
                            <mxPoint x="-930" y="-1140"/>
                            <mxPoint x="-800" y="-1140"/>
                            <mxPoint x="-800" y="-585"/>
                            <mxPoint x="-1080" y="-585"/>
                        </Array>
                    </mxGeometry>
                </mxCell>
                <mxCell id="9" value="&lt;div style=&quot;color: rgb(247, 241, 255); background-color: rgb(34, 34, 34); font-family: &amp;quot;Ubuntu Mono&amp;quot;, Consolas, &amp;quot;Courier New&amp;quot;, monospace; font-weight: normal; font-size: 14px; line-height: 19px;&quot;&gt;&lt;div&gt;&lt;span style=&quot;color: #fc618d;font-style: italic;&quot;&gt;static&lt;/span&gt;&lt;span style=&quot;color: #f7f1ff;&quot;&gt; &lt;/span&gt;&lt;span style=&quot;color: #5ad4e6;font-style: italic;&quot;&gt;int&lt;/span&gt;&lt;span style=&quot;color: #f7f1ff;&quot;&gt; &lt;/span&gt;&lt;span style=&quot;color: #7bd88f;&quot;&gt;btstack_audio_esp32_sink_init&lt;/span&gt;&lt;span style=&quot;color: #8b888f;&quot;&gt;(&lt;/span&gt;&lt;span style=&quot;color: rgb(90, 212, 230); font-style: italic;&quot;&gt;uint8_t&lt;/span&gt; &lt;span style=&quot;color: rgb(253, 147, 83); font-style: italic;&quot;&gt;channels&lt;/span&gt;&lt;span style=&quot;color: rgb(139, 136, 143);&quot;&gt;,&amp;nbsp;&lt;/span&gt;&lt;span style=&quot;color: rgb(90, 212, 230); font-style: italic;&quot;&gt;uint32_t&lt;/span&gt; &lt;span style=&quot;color: rgb(253, 147, 83); font-style: italic;&quot;&gt;samplerate&lt;/span&gt;&lt;span style=&quot;color: rgb(139, 136, 143);&quot;&gt;,&lt;/span&gt;&lt;/div&gt;&lt;div&gt;&lt;span style=&quot;color: #f7f1ff;&quot;&gt;&amp;nbsp; &amp;nbsp; &lt;/span&gt;&lt;span style=&quot;color: #5ad4e6;font-style: italic;&quot;&gt;void&lt;/span&gt;&lt;span style=&quot;color: #f7f1ff;&quot;&gt; &lt;/span&gt;&lt;span style=&quot;color: #8b888f;&quot;&gt;(&lt;/span&gt;&lt;span style=&quot;color: #fc618d;&quot;&gt;*&lt;/span&gt;&lt;span style=&quot;color: #fd9353;font-style: italic;&quot;&gt;playback&lt;/span&gt;&lt;span style=&quot;color: #8b888f;&quot;&gt;)(&lt;/span&gt;&lt;span style=&quot;color: #5ad4e6;font-style: italic;&quot;&gt;int16_t&lt;/span&gt;&lt;span style=&quot;color: #f7f1ff;&quot;&gt; &lt;/span&gt;&lt;span style=&quot;color: #fc618d;&quot;&gt;*&lt;/span&gt;&lt;span style=&quot;color: #f7f1ff;&quot;&gt; buffer&lt;/span&gt;&lt;span style=&quot;color: #8b888f;&quot;&gt;,&lt;/span&gt;&lt;span style=&quot;color: #f7f1ff;&quot;&gt; &lt;/span&gt;&lt;span style=&quot;color: #5ad4e6;font-style: italic;&quot;&gt;uint16_t&lt;/span&gt;&lt;span style=&quot;color: #f7f1ff;&quot;&gt; num_samples&lt;/span&gt;&lt;span style=&quot;color: #8b888f;&quot;&gt;)){&lt;/span&gt;&lt;/div&gt;&lt;br&gt;&lt;div&gt;&lt;span style=&quot;color: #f7f1ff;&quot;&gt;&amp;nbsp; &amp;nbsp; &lt;/span&gt;&lt;span style=&quot;color: #5ad4e6;&quot;&gt;btstack_assert&lt;/span&gt;&lt;span style=&quot;color: #8b888f;&quot;&gt;(&lt;/span&gt;&lt;span style=&quot;color: #fd9353;font-style: italic;&quot;&gt;playback&lt;/span&gt;&lt;span style=&quot;color: #f7f1ff;&quot;&gt; &lt;/span&gt;&lt;span style=&quot;color: #fc618d;&quot;&gt;!=&lt;/span&gt;&lt;span style=&quot;color: #f7f1ff;&quot;&gt; &lt;/span&gt;&lt;span style=&quot;color: #5ad4e6;&quot;&gt;NULL&lt;/span&gt;&lt;span style=&quot;color: #8b888f;&quot;&gt;);&lt;/span&gt;&lt;/div&gt;&lt;div&gt;&lt;span style=&quot;color: #f7f1ff;&quot;&gt;&amp;nbsp; &amp;nbsp; &lt;/span&gt;&lt;span style=&quot;color: #5ad4e6;&quot;&gt;btstack_assert&lt;/span&gt;&lt;span style=&quot;color: #8b888f;&quot;&gt;((&lt;/span&gt;&lt;span style=&quot;color: #948ae3;&quot;&gt;1&lt;/span&gt;&lt;span style=&quot;color: #f7f1ff;&quot;&gt; &lt;/span&gt;&lt;span style=&quot;color: #fc618d;&quot;&gt;&amp;lt;=&lt;/span&gt;&lt;span style=&quot;color: #f7f1ff;&quot;&gt; &lt;/span&gt;&lt;span style=&quot;color: #fd9353;font-style: italic;&quot;&gt;channels&lt;/span&gt;&lt;span style=&quot;color: #8b888f;&quot;&gt;)&lt;/span&gt;&lt;span style=&quot;color: #f7f1ff;&quot;&gt; &lt;/span&gt;&lt;span style=&quot;color: #fc618d;&quot;&gt;&amp;amp;&amp;amp;&lt;/span&gt;&lt;span style=&quot;color: #f7f1ff;&quot;&gt; &lt;/span&gt;&lt;span style=&quot;color: #8b888f;&quot;&gt;(&lt;/span&gt;&lt;span style=&quot;color: #fd9353;font-style: italic;&quot;&gt;channels&lt;/span&gt;&lt;span style=&quot;color: #f7f1ff;&quot;&gt; &lt;/span&gt;&lt;span style=&quot;color: #fc618d;&quot;&gt;&amp;lt;=&lt;/span&gt;&lt;span style=&quot;color: #f7f1ff;&quot;&gt; &lt;/span&gt;&lt;span style=&quot;color: #948ae3;&quot;&gt;2&lt;/span&gt;&lt;span style=&quot;color: #8b888f;&quot;&gt;));&lt;/span&gt;&lt;/div&gt;&lt;br&gt;&lt;div&gt;&lt;span style=&quot;color: #8b888f;&quot;&gt;&amp;nbsp; &amp;nbsp; &lt;/span&gt;&lt;span style=&quot;color: #69676c;font-style: italic;&quot;&gt;// store config&lt;/span&gt;&lt;/div&gt;&lt;div&gt;&lt;span style=&quot;color: #f7f1ff;&quot;&gt;&amp;nbsp; &amp;nbsp; &lt;/span&gt;&lt;span style=&quot;color: #f7f1ff;&quot;&gt;btstack_audio_esp32_sink_playback_callback&lt;/span&gt;&lt;span style=&quot;color: #f7f1ff;&quot;&gt; &amp;nbsp;&lt;/span&gt;&lt;span style=&quot;color: #fc618d;&quot;&gt;=&lt;/span&gt;&lt;span style=&quot;color: #f7f1ff;&quot;&gt; &lt;/span&gt;&lt;span style=&quot;color: #fd9353;font-style: italic;&quot;&gt;playback&lt;/span&gt;&lt;span style=&quot;color: #8b888f;&quot;&gt;;&lt;/span&gt;&lt;/div&gt;&lt;/div&gt;" style="text;whiteSpace=wrap;html=1;fontSize=15;" vertex="1" parent="1">
                    <mxGeometry x="260" y="210" width="560" height="160" as="geometry"/>
                </mxCell>
                <mxCell id="47" value="&lt;div style=&quot;color: rgb(247, 241, 255); background-color: rgb(34, 34, 34); font-family: &amp;quot;Ubuntu Mono&amp;quot;, Consolas, &amp;quot;Courier New&amp;quot;, monospace; font-weight: normal; font-size: 14px; line-height: 19px;&quot;&gt;&lt;div&gt;&lt;span style=&quot;color: #fc618d;font-style: italic;&quot;&gt;static&lt;/span&gt;&lt;span style=&quot;color: #f7f1ff;&quot;&gt; &lt;/span&gt;&lt;span style=&quot;color: #5ad4e6;font-style: italic;&quot;&gt;void&lt;/span&gt;&lt;span style=&quot;color: #f7f1ff;&quot;&gt; &lt;/span&gt;&lt;span style=&quot;color: #7bd88f;&quot;&gt;btstack_audio_esp32_sink_fill_buffer&lt;/span&gt;&lt;span style=&quot;color: #8b888f;&quot;&gt;(&lt;/span&gt;&lt;span style=&quot;color: #5ad4e6;font-style: italic;&quot;&gt;void&lt;/span&gt;&lt;span style=&quot;color: #8b888f;&quot;&gt;)&lt;/span&gt;&lt;/div&gt;&lt;div&gt;&lt;span style=&quot;color: #8b888f;&quot;&gt;{&lt;/span&gt;&lt;/div&gt;&lt;div&gt;&lt;div style=&quot;line-height: 19px;&quot;&gt;&amp;nbsp;&lt;span style=&quot;color: #8b888f;&quot;&gt;(&lt;/span&gt;&lt;span style=&quot;color: #fc618d;&quot;&gt;*&lt;/span&gt;btstack_audio_esp32_sink_playback_callback&lt;span style=&quot;color: #8b888f;&quot;&gt;)((&lt;/span&gt;&lt;span style=&quot;color: #5ad4e6;font-style: italic;&quot;&gt;int16_t&lt;/span&gt; &lt;span style=&quot;color: #fc618d;&quot;&gt;*&lt;/span&gt;&lt;span style=&quot;color: #8b888f;&quot;&gt;)&lt;/span&gt; sink_buffer&lt;span style=&quot;color: #8b888f;&quot;&gt;,&lt;/span&gt; btstack_audio_esp32_samples_per_dma_buffer&lt;span style=&quot;color: #8b888f;&quot;&gt;);&lt;/span&gt;&lt;/div&gt;&lt;/div&gt;&lt;div&gt;&lt;span style=&quot;color: #8b888f;&quot;&gt;&lt;br&gt;&lt;/span&gt;&lt;/div&gt;&lt;div&gt;&lt;span style=&quot;color: rgb(123, 216, 143);&quot;&gt;i2s_write&lt;/span&gt;&lt;span style=&quot;color: rgb(139, 136, 143);&quot;&gt;(&lt;/span&gt;&lt;span style=&quot;color: rgb(90, 212, 230);&quot;&gt;BTSTACK_AUDIO_I2S_NUM&lt;/span&gt;&lt;span style=&quot;color: rgb(139, 136, 143);&quot;&gt;,&lt;/span&gt;&amp;nbsp;sink_buffer&lt;span style=&quot;color: rgb(139, 136, 143);&quot;&gt;,&lt;/span&gt;&amp;nbsp;data_len&lt;span style=&quot;color: rgb(139, 136, 143);&quot;&gt;,&lt;/span&gt;&amp;nbsp;&lt;span style=&quot;color: rgb(252, 97, 141);&quot;&gt;&amp;amp;&lt;/span&gt;bytes_written&lt;span style=&quot;color: rgb(139, 136, 143);&quot;&gt;,&lt;/span&gt;&amp;nbsp;&lt;span style=&quot;color: rgb(148, 138, 227);&quot;&gt;0&lt;/span&gt;&lt;span style=&quot;color: rgb(139, 136, 143);&quot;&gt;);&lt;/span&gt;&lt;br&gt;&lt;/div&gt;&lt;div&gt;&lt;span style=&quot;color: #8b888f;&quot;&gt;}&lt;/span&gt;&lt;/div&gt;&lt;/div&gt;" style="text;whiteSpace=wrap;html=1;fontSize=35;" vertex="1" parent="1">
                    <mxGeometry x="190" y="510" width="820" height="120" as="geometry"/>
                </mxCell>
                <mxCell id="2" value="&lt;div style=&quot;color: rgb(247, 241, 255); background-color: rgb(34, 34, 34); font-family: &amp;quot;Ubuntu Mono&amp;quot;, Consolas, &amp;quot;Courier New&amp;quot;, monospace; font-weight: normal; font-size: 14px; line-height: 19px;&quot;&gt;&lt;br&gt;&lt;/div&gt;" style="text;whiteSpace=wrap;html=1;" vertex="1" parent="1">
                    <mxGeometry x="260" y="620" width="560" height="30" as="geometry"/>
                </mxCell>
                <mxCell id="32" value="&lt;div style=&quot;color: rgb(247, 241, 255); background-color: rgb(34, 34, 34); font-family: &amp;quot;Ubuntu Mono&amp;quot;, Consolas, &amp;quot;Courier New&amp;quot;, monospace; font-weight: normal; font-size: 14px; line-height: 19px;&quot;&gt;&lt;div&gt;&lt;span style=&quot;color: #fc618d;font-style: italic;&quot;&gt;static&lt;/span&gt;&lt;span style=&quot;color: #f7f1ff;&quot;&gt; &lt;/span&gt;&lt;span style=&quot;color: #5ad4e6;font-style: italic;&quot;&gt;void&lt;/span&gt;&lt;span style=&quot;color: #f7f1ff;&quot;&gt; &lt;/span&gt;&lt;span style=&quot;color: #7bd88f;&quot;&gt;audio_playback_callback&lt;/span&gt;&lt;span style=&quot;color: #8b888f;&quot;&gt;(&lt;/span&gt;&lt;span style=&quot;color: #5ad4e6;font-style: italic;&quot;&gt;int16_t&lt;/span&gt;&lt;span style=&quot;color: #f7f1ff;&quot;&gt; &lt;/span&gt;&lt;span style=&quot;color: #fc618d;&quot;&gt;*&lt;/span&gt;&lt;span style=&quot;color: #f7f1ff;&quot;&gt; &lt;/span&gt;&lt;span style=&quot;color: #fd9353;font-style: italic;&quot;&gt;buffer&lt;/span&gt;&lt;span style=&quot;color: #8b888f;&quot;&gt;,&lt;/span&gt;&lt;span style=&quot;color: #f7f1ff;&quot;&gt; &lt;/span&gt;&lt;span style=&quot;color: #5ad4e6;font-style: italic;&quot;&gt;uint16_t&lt;/span&gt;&lt;span style=&quot;color: #f7f1ff;&quot;&gt; &lt;/span&gt;&lt;span style=&quot;color: #fd9353;font-style: italic;&quot;&gt;num_samples&lt;/span&gt;&lt;span style=&quot;color: #8b888f;&quot;&gt;){&lt;/span&gt;&lt;/div&gt;&lt;br&gt;&lt;div&gt;&lt;span style=&quot;color: #8b888f;&quot;&gt;&amp;nbsp; &amp;nbsp; &lt;/span&gt;&lt;span style=&quot;color: #69676c;font-style: italic;&quot;&gt;// fill with silence while paused&lt;/span&gt;&lt;/div&gt;&lt;div&gt;&lt;span style=&quot;color: #f7f1ff;&quot;&gt;&amp;nbsp; &amp;nbsp; &lt;/span&gt;&lt;span style=&quot;color: #fc618d;&quot;&gt;if&lt;/span&gt;&lt;span style=&quot;color: #f7f1ff;&quot;&gt; &lt;/span&gt;&lt;span style=&quot;color: #8b888f;&quot;&gt;(&lt;/span&gt;&lt;span style=&quot;color: #f7f1ff;&quot;&gt;audio_output_paused&lt;/span&gt;&lt;span style=&quot;color: #8b888f;&quot;&gt;){&lt;/span&gt;&lt;/div&gt;&lt;div&gt;&lt;span style=&quot;color: #f7f1ff;&quot;&gt;&amp;nbsp; &amp;nbsp; &amp;nbsp; &amp;nbsp; &lt;/span&gt;&lt;span style=&quot;color: #fc618d;&quot;&gt;if&lt;/span&gt;&lt;span style=&quot;color: #f7f1ff;&quot;&gt; &lt;/span&gt;&lt;span style=&quot;color: #8b888f;&quot;&gt;(&lt;/span&gt;&lt;span style=&quot;color: #7bd88f;&quot;&gt;btstack_ring_buffer_bytes_available&lt;/span&gt;&lt;span style=&quot;color: #8b888f;&quot;&gt;(&lt;/span&gt;&lt;span style=&quot;color: #fc618d;&quot;&gt;&amp;amp;&lt;/span&gt;&lt;span style=&quot;color: #f7f1ff;&quot;&gt;audio_output_ring_buffer&lt;/span&gt;&lt;span style=&quot;color: #8b888f;&quot;&gt;)&lt;/span&gt;&lt;span style=&quot;color: #f7f1ff;&quot;&gt; &lt;/span&gt;&lt;span style=&quot;color: #fc618d;&quot;&gt;&amp;lt;&lt;/span&gt;&lt;span style=&quot;color: #f7f1ff;&quot;&gt; &lt;/span&gt;&lt;span style=&quot;color: #f7f1ff;&quot;&gt;audio_prebuffer_bytes&lt;/span&gt;&lt;span style=&quot;color: #8b888f;&quot;&gt;){&lt;/span&gt;&lt;/div&gt;&lt;div&gt;&lt;span style=&quot;color: #f7f1ff;&quot;&gt;&amp;nbsp; &amp;nbsp; &amp;nbsp; &amp;nbsp; &amp;nbsp; &amp;nbsp; &lt;/span&gt;&lt;span style=&quot;color: #7bd88f;&quot;&gt;memset&lt;/span&gt;&lt;span style=&quot;color: #8b888f;&quot;&gt;(&lt;/span&gt;&lt;span style=&quot;color: #fd9353;font-style: italic;&quot;&gt;buffer&lt;/span&gt;&lt;span style=&quot;color: #8b888f;&quot;&gt;,&lt;/span&gt;&lt;span style=&quot;color: #f7f1ff;&quot;&gt; &lt;/span&gt;&lt;span style=&quot;color: #948ae3;&quot;&gt;0&lt;/span&gt;&lt;span style=&quot;color: #8b888f;&quot;&gt;,&lt;/span&gt;&lt;span style=&quot;color: #f7f1ff;&quot;&gt; &lt;/span&gt;&lt;span style=&quot;color: #fd9353;font-style: italic;&quot;&gt;num_samples&lt;/span&gt;&lt;span style=&quot;color: #f7f1ff;&quot;&gt; &lt;/span&gt;&lt;span style=&quot;color: #fc618d;&quot;&gt;*&lt;/span&gt;&lt;span style=&quot;color: #f7f1ff;&quot;&gt; &lt;/span&gt;&lt;span style=&quot;color: #5ad4e6;&quot;&gt;BYTES_PER_FRAME&lt;/span&gt;&lt;span style=&quot;color: #8b888f;&quot;&gt;);&lt;/span&gt;&lt;/div&gt;&lt;div&gt;&lt;span style=&quot;color: #f7f1ff;&quot;&gt;&amp;nbsp; &amp;nbsp; &amp;nbsp; &amp;nbsp; &amp;nbsp; &amp;nbsp;&lt;/span&gt;&lt;span style=&quot;color: #fc618d;&quot;&gt;return&lt;/span&gt;&lt;span style=&quot;color: #8b888f;&quot;&gt;;&lt;/span&gt;&lt;/div&gt;&lt;div&gt;&lt;span style=&quot;color: #f7f1ff;&quot;&gt;&amp;nbsp; &amp;nbsp; &amp;nbsp; &amp;nbsp; &lt;/span&gt;&lt;span style=&quot;color: #8b888f;&quot;&gt;}&lt;/span&gt;&lt;span style=&quot;color: #f7f1ff;&quot;&gt; &lt;/span&gt;&lt;span style=&quot;color: #fc618d;&quot;&gt;else&lt;/span&gt;&lt;span style=&quot;color: #f7f1ff;&quot;&gt; &lt;/span&gt;&lt;span style=&quot;color: #8b888f;&quot;&gt;{&lt;/span&gt;&lt;/div&gt;&lt;div&gt;&lt;span style=&quot;color: #8b888f;&quot;&gt;&amp;nbsp; &amp;nbsp; &amp;nbsp; &amp;nbsp; &amp;nbsp; &amp;nbsp; &lt;/span&gt;&lt;span style=&quot;color: #69676c;font-style: italic;&quot;&gt;// resume playback&lt;/span&gt;&lt;/div&gt;&lt;div&gt;&lt;span style=&quot;color: #f7f1ff;&quot;&gt;&amp;nbsp; &amp;nbsp; &amp;nbsp; &amp;nbsp; &amp;nbsp; &amp;nbsp; &lt;/span&gt;&lt;span style=&quot;color: #f7f1ff;&quot;&gt;audio_output_paused&lt;/span&gt;&lt;span style=&quot;color: #f7f1ff;&quot;&gt; &lt;/span&gt;&lt;span style=&quot;color: #fc618d;&quot;&gt;=&lt;/span&gt;&lt;span style=&quot;color: #f7f1ff;&quot;&gt; &lt;/span&gt;&lt;span style=&quot;color: #948ae3;&quot;&gt;0&lt;/span&gt;&lt;span style=&quot;color: #8b888f;&quot;&gt;;&lt;/span&gt;&lt;/div&gt;&lt;div&gt;&lt;span style=&quot;color: #f7f1ff;&quot;&gt;&amp;nbsp; &amp;nbsp; &amp;nbsp; &amp;nbsp; &lt;/span&gt;&lt;span style=&quot;color: #8b888f;&quot;&gt;}&lt;/span&gt;&lt;/div&gt;&lt;div&gt;&lt;span style=&quot;color: #f7f1ff;&quot;&gt;&amp;nbsp; &amp;nbsp; &lt;/span&gt;&lt;span style=&quot;color: #8b888f;&quot;&gt;}&lt;/span&gt;&lt;/div&gt;&lt;br&gt;&lt;div&gt;&lt;span style=&quot;color: #8b888f;&quot;&gt;&amp;nbsp; &amp;nbsp; &lt;/span&gt;&lt;span style=&quot;color: #69676c;font-style: italic;&quot;&gt;// get data from ringbuffer&lt;/span&gt;&lt;/div&gt;&lt;div&gt;&lt;span style=&quot;color: #f7f1ff;&quot;&gt;&amp;nbsp; &amp;nbsp; &lt;/span&gt;&lt;span style=&quot;color: #5ad4e6;font-style: italic;&quot;&gt;uint32_t&lt;/span&gt;&lt;span style=&quot;color: #f7f1ff;&quot;&gt; &lt;/span&gt;&lt;span style=&quot;color: #f7f1ff;&quot;&gt;bytes_read&lt;/span&gt;&lt;span style=&quot;color: #f7f1ff;&quot;&gt; &lt;/span&gt;&lt;span style=&quot;color: #fc618d;&quot;&gt;=&lt;/span&gt;&lt;span style=&quot;color: #f7f1ff;&quot;&gt; &lt;/span&gt;&lt;span style=&quot;color: #948ae3;&quot;&gt;0&lt;/span&gt;&lt;span style=&quot;color: #8b888f;&quot;&gt;;&lt;/span&gt;&lt;/div&gt;&lt;div&gt;&lt;span style=&quot;color: #f7f1ff;&quot;&gt;&amp;nbsp; &amp;nbsp; &lt;/span&gt;&lt;span style=&quot;color: #7bd88f;&quot;&gt;btstack_ring_buffer_read&lt;/span&gt;&lt;span style=&quot;color: #8b888f;&quot;&gt;(&lt;/span&gt;&lt;span style=&quot;color: #fc618d;&quot;&gt;&amp;amp;&lt;/span&gt;&lt;span style=&quot;color: #f7f1ff;&quot;&gt;audio_output_ring_buffer&lt;/span&gt;&lt;span style=&quot;color: #8b888f;&quot;&gt;,&lt;/span&gt;&lt;span style=&quot;color: #f7f1ff;&quot;&gt; &lt;/span&gt;&lt;span style=&quot;color: #8b888f;&quot;&gt;(&lt;/span&gt;&lt;span style=&quot;color: #5ad4e6;font-style: italic;&quot;&gt;uint8_t&lt;/span&gt;&lt;span style=&quot;color: #f7f1ff;&quot;&gt; &lt;/span&gt;&lt;span style=&quot;color: #fc618d;&quot;&gt;*&lt;/span&gt;&lt;span style=&quot;color: #8b888f;&quot;&gt;)&lt;/span&gt;&lt;span style=&quot;color: #f7f1ff;&quot;&gt; &lt;/span&gt;&lt;span style=&quot;color: #fd9353;font-style: italic;&quot;&gt;buffer&lt;/span&gt;&lt;span style=&quot;color: #8b888f;&quot;&gt;,&lt;/span&gt;&lt;span style=&quot;color: #f7f1ff;&quot;&gt; &lt;/span&gt;&lt;span style=&quot;color: #fd9353;font-style: italic;&quot;&gt;num_samples&lt;/span&gt;&lt;span style=&quot;color: #f7f1ff;&quot;&gt; &lt;/span&gt;&lt;span style=&quot;color: #fc618d;&quot;&gt;*&lt;/span&gt;&lt;span style=&quot;color: #f7f1ff;&quot;&gt; &lt;/span&gt;&lt;span style=&quot;color: #5ad4e6;&quot;&gt;BYTES_PER_FRAME&lt;/span&gt;&lt;span style=&quot;color: #8b888f;&quot;&gt;,&lt;/span&gt;&lt;span style=&quot;color: #f7f1ff;&quot;&gt; &lt;/span&gt;&lt;span style=&quot;color: #fc618d;&quot;&gt;&amp;amp;&lt;/span&gt;&lt;span style=&quot;color: #f7f1ff;&quot;&gt;bytes_read&lt;/span&gt;&lt;span style=&quot;color: #8b888f;&quot;&gt;);&lt;/span&gt;&lt;/div&gt;&lt;div&gt;&lt;span style=&quot;color: #f7f1ff;&quot;&gt;&amp;nbsp; &amp;nbsp; &lt;/span&gt;&lt;span style=&quot;color: #fd9353;font-style: italic;&quot;&gt;num_samples&lt;/span&gt;&lt;span style=&quot;color: #f7f1ff;&quot;&gt; &lt;/span&gt;&lt;span style=&quot;color: #fc618d;&quot;&gt;-=&lt;/span&gt;&lt;span style=&quot;color: #f7f1ff;&quot;&gt; &lt;/span&gt;&lt;span style=&quot;color: #f7f1ff;&quot;&gt;bytes_read&lt;/span&gt;&lt;span style=&quot;color: #f7f1ff;&quot;&gt; &lt;/span&gt;&lt;span style=&quot;color: #fc618d;&quot;&gt;/&lt;/span&gt;&lt;span style=&quot;color: #f7f1ff;&quot;&gt; &lt;/span&gt;&lt;span style=&quot;color: #5ad4e6;&quot;&gt;BYTES_PER_FRAME&lt;/span&gt;&lt;span style=&quot;color: #8b888f;&quot;&gt;;&lt;/span&gt;&lt;/div&gt;&lt;div&gt;&lt;span style=&quot;color: #f7f1ff;&quot;&gt;&amp;nbsp; &amp;nbsp; &lt;/span&gt;&lt;span style=&quot;color: #fd9353;font-style: italic;&quot;&gt;buffer&lt;/span&gt;&lt;span style=&quot;color: #f7f1ff;&quot;&gt; &amp;nbsp; &amp;nbsp; &amp;nbsp;&lt;/span&gt;&lt;span style=&quot;color: #fc618d;&quot;&gt;+=&lt;/span&gt;&lt;span style=&quot;color: #f7f1ff;&quot;&gt; &lt;/span&gt;&lt;span style=&quot;color: #f7f1ff;&quot;&gt;bytes_read&lt;/span&gt;&lt;span style=&quot;color: #f7f1ff;&quot;&gt; &lt;/span&gt;&lt;span style=&quot;color: #fc618d;&quot;&gt;/&lt;/span&gt;&lt;span style=&quot;color: #f7f1ff;&quot;&gt; &lt;/span&gt;&lt;span style=&quot;color: #5ad4e6;&quot;&gt;BYTES_PER_FRAME&lt;/span&gt;&lt;span style=&quot;color: #8b888f;&quot;&gt;;&lt;/span&gt;&lt;/div&gt;&lt;br&gt;&lt;div&gt;&lt;span style=&quot;color: #8b888f;&quot;&gt;&amp;nbsp; &amp;nbsp; &lt;/span&gt;&lt;span style=&quot;color: #69676c;font-style: italic;&quot;&gt;// fill with 0 if not enough&lt;/span&gt;&lt;/div&gt;&lt;div&gt;&lt;span style=&quot;color: #f7f1ff;&quot;&gt;&amp;nbsp; &amp;nbsp; &lt;/span&gt;&lt;span style=&quot;color: #fc618d;&quot;&gt;if&lt;/span&gt;&lt;span style=&quot;color: #f7f1ff;&quot;&gt; &lt;/span&gt;&lt;span style=&quot;color: #8b888f;&quot;&gt;(&lt;/span&gt;&lt;span style=&quot;color: #fd9353;font-style: italic;&quot;&gt;num_samples&lt;/span&gt;&lt;span style=&quot;color: #8b888f;&quot;&gt;)&lt;/span&gt;&lt;/div&gt;&lt;div&gt;&lt;span style=&quot;color: #f7f1ff;&quot;&gt;&amp;nbsp; &amp;nbsp; &lt;/span&gt;&lt;span style=&quot;color: #8b888f;&quot;&gt;{&lt;/span&gt;&lt;/div&gt;&lt;div&gt;&lt;span style=&quot;color: #f7f1ff;&quot;&gt;&amp;nbsp; &amp;nbsp; &amp;nbsp; &amp;nbsp; &lt;/span&gt;&lt;span style=&quot;color: #7bd88f;&quot;&gt;memset&lt;/span&gt;&lt;span style=&quot;color: #8b888f;&quot;&gt;(&lt;/span&gt;&lt;span style=&quot;color: #fd9353;font-style: italic;&quot;&gt;buffer&lt;/span&gt;&lt;span style=&quot;color: #8b888f;&quot;&gt;,&lt;/span&gt;&lt;span style=&quot;color: #f7f1ff;&quot;&gt; &lt;/span&gt;&lt;span style=&quot;color: #948ae3;&quot;&gt;0&lt;/span&gt;&lt;span style=&quot;color: #8b888f;&quot;&gt;,&lt;/span&gt;&lt;span style=&quot;color: #f7f1ff;&quot;&gt; &lt;/span&gt;&lt;span style=&quot;color: #fd9353;font-style: italic;&quot;&gt;num_samples&lt;/span&gt;&lt;span style=&quot;color: #f7f1ff;&quot;&gt; &lt;/span&gt;&lt;span style=&quot;color: #fc618d;&quot;&gt;*&lt;/span&gt;&lt;span style=&quot;color: #f7f1ff;&quot;&gt; &lt;/span&gt;&lt;span style=&quot;color: #5ad4e6;&quot;&gt;BYTES_PER_FRAME&lt;/span&gt;&lt;span style=&quot;color: #8b888f;&quot;&gt;);&lt;/span&gt;&lt;/div&gt;&lt;div&gt;&lt;span style=&quot;color: #f7f1ff;&quot;&gt;&amp;nbsp; &amp;nbsp; &amp;nbsp; &amp;nbsp; &lt;/span&gt;&lt;span style=&quot;color: #f7f1ff;&quot;&gt;audio_output_paused&lt;/span&gt;&lt;span style=&quot;color: #f7f1ff;&quot;&gt; &lt;/span&gt;&lt;span style=&quot;color: #fc618d;&quot;&gt;=&lt;/span&gt;&lt;span style=&quot;color: #f7f1ff;&quot;&gt; &lt;/span&gt;&lt;span style=&quot;color: #948ae3;&quot;&gt;1&lt;/span&gt;&lt;span style=&quot;color: #8b888f;&quot;&gt;;&lt;/span&gt;&lt;/div&gt;&lt;div&gt;&lt;span style=&quot;color: #f7f1ff;&quot;&gt;&amp;nbsp; &amp;nbsp; &lt;/span&gt;&lt;span style=&quot;color: #8b888f;&quot;&gt;}&lt;/span&gt;&lt;/div&gt;&lt;div&gt;&lt;span style=&quot;color: #8b888f;&quot;&gt;}&lt;/span&gt;&lt;/div&gt;&lt;/div&gt;" style="text;whiteSpace=wrap;html=1;fontSize=15;" vertex="1" parent="1">
                    <mxGeometry x="260" y="-910" width="530" height="570" as="geometry"/>
                </mxCell>
                <mxCell id="21" value="&lt;div style=&quot;color: rgb(247, 241, 255); background-color: rgb(34, 34, 34); font-family: &amp;quot;Ubuntu Mono&amp;quot;, Consolas, &amp;quot;Courier New&amp;quot;, monospace; font-weight: normal; font-size: 14px; line-height: 19px;&quot;&gt;&lt;div&gt;&lt;span style=&quot;color: #fc618d;font-style: italic;&quot;&gt;const&lt;/span&gt;&lt;span style=&quot;color: #f7f1ff;&quot;&gt; &lt;/span&gt;&lt;span style=&quot;color: #5ad4e6;font-style: italic;&quot;&gt;btstack_audio_sink_t&lt;/span&gt;&lt;span style=&quot;color: #f7f1ff;&quot;&gt; &lt;/span&gt;&lt;span style=&quot;color: #fc618d;&quot;&gt;*&lt;/span&gt;&lt;span style=&quot;color: #f7f1ff;&quot;&gt; &lt;/span&gt;&lt;span style=&quot;color: #f7f1ff;&quot;&gt;audio_sink&lt;/span&gt;&lt;span style=&quot;color: #f7f1ff;&quot;&gt; &lt;/span&gt;&lt;span style=&quot;color: #fc618d;&quot;&gt;=&lt;/span&gt;&lt;span style=&quot;color: #f7f1ff;&quot;&gt; &lt;/span&gt;&lt;span style=&quot;color: #7bd88f;&quot;&gt;btstack_audio_esp32_sink_get_instance&lt;/span&gt;&lt;span style=&quot;color: #8b888f;&quot;&gt;();&lt;/span&gt;&lt;/div&gt;&lt;div&gt;&lt;span style=&quot;color: #f7f1ff;&quot;&gt;&amp;nbsp; &amp;nbsp; &lt;/span&gt;&lt;span style=&quot;color: #fc618d;&quot;&gt;if&lt;/span&gt;&lt;span style=&quot;color: #f7f1ff;&quot;&gt; &lt;/span&gt;&lt;span style=&quot;color: #8b888f;&quot;&gt;(&lt;/span&gt;&lt;span style=&quot;color: #f7f1ff;&quot;&gt;audio_sink&lt;/span&gt;&lt;span style=&quot;color: #f7f1ff;&quot;&gt; &lt;/span&gt;&lt;span style=&quot;color: #fc618d;&quot;&gt;!=&lt;/span&gt;&lt;span style=&quot;color: #f7f1ff;&quot;&gt; &lt;/span&gt;&lt;span style=&quot;color: #5ad4e6;&quot;&gt;NULL&lt;/span&gt;&lt;span style=&quot;color: #8b888f;&quot;&gt;){&lt;/span&gt;&lt;/div&gt;&lt;div&gt;&lt;span style=&quot;color: #f7f1ff;&quot;&gt;&amp;nbsp; &amp;nbsp; &lt;/span&gt;&lt;span style=&quot;color: #f7f1ff;&quot;&gt;audio_sink&lt;/span&gt;&lt;span style=&quot;color: #8b888f;&quot;&gt;-&amp;gt;&lt;/span&gt;&lt;span style=&quot;color: #f7f1ff;&quot;&gt;init&lt;/span&gt;&lt;span style=&quot;color: #8b888f;&quot;&gt;(&lt;/span&gt;&lt;span style=&quot;color: #948ae3;&quot;&gt;1&lt;/span&gt;&lt;span style=&quot;color: #8b888f;&quot;&gt;,&lt;/span&gt;&lt;span style=&quot;color: #f7f1ff;&quot;&gt; &lt;/span&gt;&lt;span style=&quot;color: #fd9353;font-style: italic;&quot;&gt;sample_rate&lt;/span&gt;&lt;span style=&quot;color: #8b888f;&quot;&gt;,&lt;/span&gt;&lt;span style=&quot;color: #f7f1ff;&quot;&gt; &lt;/span&gt;&lt;span style=&quot;color: #fc618d;&quot;&gt;&amp;amp;&lt;/span&gt;&lt;span style=&quot;color: #7bd88f;&quot;&gt;audio_playback_callback&lt;/span&gt;&lt;span style=&quot;color: #8b888f;&quot;&gt;);&lt;/span&gt;&lt;/div&gt;&lt;div&gt;&lt;span style=&quot;color: #f7f1ff;&quot;&gt;&amp;nbsp; &amp;nbsp; &lt;/span&gt;&lt;span style=&quot;color: #f7f1ff;&quot;&gt;audio_sink&lt;/span&gt;&lt;span style=&quot;color: #8b888f;&quot;&gt;-&amp;gt;&lt;/span&gt;&lt;span style=&quot;color: #f7f1ff;&quot;&gt;start_stream&lt;/span&gt;&lt;span style=&quot;color: #8b888f;&quot;&gt;();&lt;/span&gt;&lt;/div&gt;&lt;br&gt;&lt;div&gt;&lt;span style=&quot;color: #f7f1ff;&quot;&gt;&amp;nbsp; &amp;nbsp; &lt;/span&gt;&lt;span style=&quot;color: #f7f1ff;&quot;&gt;audio_output_paused&lt;/span&gt;&lt;span style=&quot;color: #f7f1ff;&quot;&gt; &amp;nbsp;&lt;/span&gt;&lt;span style=&quot;color: #fc618d;&quot;&gt;=&lt;/span&gt;&lt;span style=&quot;color: #f7f1ff;&quot;&gt; &lt;/span&gt;&lt;span style=&quot;color: #948ae3;&quot;&gt;1&lt;/span&gt;&lt;span style=&quot;color: #8b888f;&quot;&gt;;&lt;/span&gt;&lt;/div&gt;&lt;div&gt;&lt;span style=&quot;color: #f7f1ff;&quot;&gt;&amp;nbsp; &amp;nbsp; &lt;/span&gt;&lt;span style=&quot;color: #8b888f;&quot;&gt;}&lt;/span&gt;&lt;/div&gt;&lt;/div&gt;" style="text;whiteSpace=wrap;html=1;fontSize=15;" vertex="1" parent="1">
                    <mxGeometry x="260" y="-250" width="580" height="150" as="geometry"/>
                </mxCell>
                <mxCell id="16" style="edgeStyle=orthogonalEdgeStyle;html=1;entryX=0.42;entryY=0.059;entryDx=0;entryDy=0;entryPerimeter=0;fontSize=15;" edge="1" parent="1" source="15" target="9">
                    <mxGeometry relative="1" as="geometry"/>
                </mxCell>
                <mxCell id="15" value="&lt;div style=&quot;color: rgb(247, 241, 255); background-color: rgb(34, 34, 34); font-family: &amp;quot;Ubuntu Mono&amp;quot;, Consolas, &amp;quot;Courier New&amp;quot;, monospace; font-weight: normal; font-size: 14px; line-height: 19px;&quot;&gt;&lt;div&gt;&lt;span style=&quot;color: #fc618d;font-style: italic;&quot;&gt;static&lt;/span&gt;&lt;span style=&quot;color: #f7f1ff;&quot;&gt; &lt;/span&gt;&lt;span style=&quot;color: #fc618d;font-style: italic;&quot;&gt;const&lt;/span&gt;&lt;span style=&quot;color: #f7f1ff;&quot;&gt; &lt;/span&gt;&lt;span style=&quot;color: #5ad4e6;font-style: italic;&quot;&gt;btstack_audio_sink_t&lt;/span&gt;&lt;span style=&quot;color: #f7f1ff;&quot;&gt; &lt;/span&gt;&lt;span style=&quot;color: #f7f1ff;&quot;&gt;btstack_audio_esp32_sink&lt;/span&gt;&lt;span style=&quot;color: #f7f1ff;&quot;&gt; &lt;/span&gt;&lt;span style=&quot;color: #fc618d;&quot;&gt;=&lt;/span&gt;&lt;span style=&quot;color: #f7f1ff;&quot;&gt; &lt;/span&gt;&lt;span style=&quot;color: #8b888f;&quot;&gt;{&lt;/span&gt;&lt;/div&gt;&lt;div&gt;&lt;span style=&quot;color: #f7f1ff;&quot;&gt;&amp;nbsp; &amp;nbsp; .&lt;/span&gt;&lt;span style=&quot;color: #f7f1ff;&quot;&gt;init&lt;/span&gt;&lt;span style=&quot;color: #f7f1ff;&quot;&gt; &amp;nbsp; &amp;nbsp; &amp;nbsp; &amp;nbsp; &amp;nbsp; &lt;/span&gt;&lt;span style=&quot;color: #fc618d;&quot;&gt;=&lt;/span&gt;&lt;span style=&quot;color: #f7f1ff;&quot;&gt; &lt;/span&gt;&lt;span style=&quot;color: #fc618d;&quot;&gt;&amp;amp;&lt;/span&gt;&lt;span style=&quot;color: #7bd88f;&quot;&gt;btstack_audio_esp32_sink_init&lt;/span&gt;&lt;span style=&quot;color: #8b888f;&quot;&gt;,&lt;/span&gt;&lt;/div&gt;&lt;/div&gt;" style="text;whiteSpace=wrap;html=1;fontSize=15;" vertex="1" parent="1">
                    <mxGeometry x="260" y="130" width="470" height="40" as="geometry"/>
                </mxCell>
                <mxCell id="18" style="edgeStyle=orthogonalEdgeStyle;html=1;entryX=0.702;entryY=0.25;entryDx=0;entryDy=0;entryPerimeter=0;fontSize=15;" edge="1" parent="1" source="17" target="15">
                    <mxGeometry relative="1" as="geometry"/>
                </mxCell>
                <mxCell id="17" value="&lt;div style=&quot;color: rgb(247, 241, 255); background-color: rgb(34, 34, 34); font-family: &amp;quot;Ubuntu Mono&amp;quot;, Consolas, &amp;quot;Courier New&amp;quot;, monospace; font-weight: normal; font-size: 14px; line-height: 19px;&quot;&gt;&lt;div&gt;&lt;span style=&quot;color: #fc618d;font-style: italic;&quot;&gt;const&lt;/span&gt;&lt;span style=&quot;color: #f7f1ff;&quot;&gt; &lt;/span&gt;&lt;span style=&quot;color: #5ad4e6;font-style: italic;&quot;&gt;btstack_audio_sink_t&lt;/span&gt;&lt;span style=&quot;color: #f7f1ff;&quot;&gt; &lt;/span&gt;&lt;span style=&quot;color: #fc618d;&quot;&gt;*&lt;/span&gt;&lt;span style=&quot;color: #f7f1ff;&quot;&gt; &lt;/span&gt;&lt;span style=&quot;color: #7bd88f;&quot;&gt;btstack_audio_esp32_sink_get_instance&lt;/span&gt;&lt;span style=&quot;color: #8b888f;&quot;&gt;(&lt;/span&gt;&lt;span style=&quot;color: #5ad4e6;font-style: italic;&quot;&gt;void&lt;/span&gt;&lt;span style=&quot;color: #8b888f;&quot;&gt;){&lt;/span&gt;&lt;/div&gt;&lt;div&gt;&lt;span style=&quot;color: #f7f1ff;&quot;&gt;&amp;nbsp; &amp;nbsp; &lt;/span&gt;&lt;span style=&quot;color: #fc618d;&quot;&gt;return&lt;/span&gt;&lt;span style=&quot;color: #f7f1ff;&quot;&gt; &lt;/span&gt;&lt;span style=&quot;color: #fc618d;&quot;&gt;&amp;amp;&lt;/span&gt;&lt;span style=&quot;color: #f7f1ff;&quot;&gt;btstack_audio_esp32_sink&lt;/span&gt;&lt;span style=&quot;color: #8b888f;&quot;&gt;;&lt;/span&gt;&lt;/div&gt;&lt;div&gt;&lt;span style=&quot;color: #8b888f;&quot;&gt;}&lt;/span&gt;&lt;/div&gt;&lt;/div&gt;" style="text;whiteSpace=wrap;html=1;fontSize=15;" vertex="1" parent="1">
                    <mxGeometry x="260" y="30" width="560" height="60" as="geometry"/>
                </mxCell>
                <mxCell id="20" style="edgeStyle=orthogonalEdgeStyle;html=1;exitX=0.5;exitY=1;exitDx=0;exitDy=0;entryX=0.501;entryY=0.333;entryDx=0;entryDy=0;entryPerimeter=0;fontSize=15;" edge="1" parent="1" source="19" target="17">
                    <mxGeometry relative="1" as="geometry"/>
                </mxCell>
                <mxCell id="19" value="&lt;div style=&quot;color: rgb(247, 241, 255); background-color: rgb(34, 34, 34); font-family: &amp;quot;Ubuntu Mono&amp;quot;, Consolas, &amp;quot;Courier New&amp;quot;, monospace; font-weight: normal; font-size: 14px; line-height: 19px;&quot;&gt;&lt;div&gt;&lt;span style=&quot;color: #fc618d;font-style: italic;&quot;&gt;const&lt;/span&gt;&lt;span style=&quot;color: #f7f1ff;&quot;&gt; &lt;/span&gt;&lt;span style=&quot;color: #5ad4e6;font-style: italic;&quot;&gt;btstack_audio_sink_t&lt;/span&gt;&lt;span style=&quot;color: #f7f1ff;&quot;&gt; &lt;/span&gt;&lt;span style=&quot;color: #fc618d;&quot;&gt;*&lt;/span&gt;&lt;span style=&quot;color: #f7f1ff;&quot;&gt; &amp;nbsp; &amp;nbsp;&lt;/span&gt;&lt;span style=&quot;color: #7bd88f;&quot;&gt;btstack_audio_esp32_sink_get_instance&lt;/span&gt;&lt;span style=&quot;color: #8b888f;&quot;&gt;(&lt;/span&gt;&lt;span style=&quot;color: #5ad4e6;font-style: italic;&quot;&gt;void&lt;/span&gt;&lt;span style=&quot;color: #8b888f;&quot;&gt;);&lt;/span&gt;&lt;/div&gt;&lt;/div&gt;" style="text;whiteSpace=wrap;html=1;fontSize=15;" vertex="1" parent="1">
                    <mxGeometry x="260" y="-20" width="560" height="30" as="geometry"/>
                </mxCell>
                <mxCell id="28" style="edgeStyle=orthogonalEdgeStyle;html=1;fontSize=15;exitX=0.569;exitY=0.4;exitDx=0;exitDy=0;exitPerimeter=0;" edge="1" parent="1" source="21">
                    <mxGeometry relative="1" as="geometry">
                        <mxPoint x="299" y="361" as="targetPoint"/>
                        <mxPoint x="590.02" y="-190" as="sourcePoint"/>
                        <Array as="points">
                            <mxPoint x="590" y="-80"/>
                            <mxPoint x="220" y="-80"/>
                            <mxPoint x="220" y="361"/>
                        </Array>
                    </mxGeometry>
                </mxCell>
                <mxCell id="30" style="edgeStyle=orthogonalEdgeStyle;html=1;exitX=0.5;exitY=0;exitDx=0;exitDy=0;fontSize=15;" edge="1" parent="1" source="19">
                    <mxGeometry relative="1" as="geometry">
                        <mxPoint x="660" y="-240" as="targetPoint"/>
                        <mxPoint x="540" y="-20" as="sourcePoint"/>
                        <Array as="points">
                            <mxPoint x="540" y="-40"/>
                            <mxPoint x="880" y="-40"/>
                            <mxPoint x="880" y="-290"/>
                            <mxPoint x="660" y="-290"/>
                        </Array>
                    </mxGeometry>
                </mxCell>
                <mxCell id="33" style="edgeStyle=orthogonalEdgeStyle;html=1;exitX=0.25;exitY=0;exitDx=0;exitDy=0;fontSize=15;entryX=0.724;entryY=0.333;entryDx=0;entryDy=0;entryPerimeter=0;" edge="1" parent="1" source="32" target="21">
                    <mxGeometry relative="1" as="geometry">
                        <mxPoint x="870" y="-180" as="targetPoint"/>
                        <Array as="points">
                            <mxPoint x="400" y="-910"/>
                            <mxPoint x="400" y="-920"/>
                            <mxPoint x="930" y="-920"/>
                            <mxPoint x="930" y="-180"/>
                            <mxPoint x="680" y="-180"/>
                        </Array>
                    </mxGeometry>
                </mxCell>
                <mxCell id="40" value="Это функция искома: тут с кольцевого передается в просто буфер" style="edgeLabel;html=1;align=center;verticalAlign=middle;resizable=0;points=[];fontSize=21;" vertex="1" connectable="0" parent="33">
                    <mxGeometry x="-0.8796" y="1" relative="1" as="geometry">
                        <mxPoint x="38" y="-19" as="offset"/>
                    </mxGeometry>
                </mxCell>
                <mxCell id="34" style="edgeStyle=orthogonalEdgeStyle;html=1;exitX=0.962;exitY=0.596;exitDx=0;exitDy=0;fontSize=15;exitPerimeter=0;" edge="1" parent="1" source="32">
                    <mxGeometry relative="1" as="geometry">
                        <mxPoint x="500" y="260" as="targetPoint"/>
                        <Array as="points">
                            <mxPoint x="840" y="-570"/>
                            <mxPoint x="840" y="-320"/>
                            <mxPoint x="160" y="-320"/>
                            <mxPoint x="160" y="240"/>
                            <mxPoint x="500" y="240"/>
                        </Array>
                    </mxGeometry>
                </mxCell>
                <mxCell id="38" style="edgeStyle=orthogonalEdgeStyle;html=1;exitX=1;exitY=0.5;exitDx=0;exitDy=0;entryX=0.075;entryY=0.596;entryDx=0;entryDy=0;entryPerimeter=0;strokeWidth=4;fontSize=21;" edge="1" parent="1" source="37" target="32">
                    <mxGeometry relative="1" as="geometry">
                        <Array as="points">
                            <mxPoint x="300" y="-565"/>
                        </Array>
                    </mxGeometry>
                </mxCell>
                <mxCell id="39" value="&lt;font style=&quot;font-size: 37px;&quot;&gt;OUT&lt;/font&gt;" style="edgeLabel;html=1;align=center;verticalAlign=middle;resizable=0;points=[];fontSize=21;" vertex="1" connectable="0" parent="38">
                    <mxGeometry x="-0.3457" relative="1" as="geometry">
                        <mxPoint x="-1" as="offset"/>
                    </mxGeometry>
                </mxCell>
                <mxCell id="44" style="edgeStyle=orthogonalEdgeStyle;html=1;strokeWidth=4;fontSize=35;entryX=0;entryY=0.5;entryDx=0;entryDy=0;exitX=0.975;exitY=0.931;exitDx=0;exitDy=0;exitPerimeter=0;" edge="1" parent="1" source="59" target="37">
                    <mxGeometry relative="1" as="geometry">
                        <mxPoint x="-770" y="-605" as="targetPoint"/>
                        <mxPoint x="-840" y="-565" as="sourcePoint"/>
                        <Array as="points"/>
                    </mxGeometry>
                </mxCell>
                <mxCell id="46" value="IN" style="edgeLabel;html=1;align=center;verticalAlign=middle;resizable=0;points=[];fontSize=35;" vertex="1" connectable="0" parent="44">
                    <mxGeometry x="0.186" y="-5" relative="1" as="geometry">
                        <mxPoint x="-1" as="offset"/>
                    </mxGeometry>
                </mxCell>
                <mxCell id="37" value="&lt;font style=&quot;font-size: 21px;&quot;&gt;&lt;b&gt;AUDIO_OUTPUT_BUFFER&lt;/b&gt;&lt;/font&gt;" style="ellipse;whiteSpace=wrap;html=1;aspect=fixed;fontSize=15;" vertex="1" parent="1">
                    <mxGeometry x="-450" y="-720" width="310" height="310" as="geometry"/>
                </mxCell>
                <mxCell id="42" value="&lt;div style=&quot;font-size: 43px;&quot;&gt;&lt;span style=&quot;background-color: initial;&quot;&gt;&lt;font style=&quot;font-size: 43px;&quot;&gt;2 ЦЕЛИ:&lt;/font&gt;&lt;/span&gt;&lt;/div&gt;&lt;div style=&quot;text-align: left; font-size: 43px;&quot;&gt;&lt;span style=&quot;background-color: initial;&quot;&gt;&lt;font style=&quot;font-size: 43px;&quot;&gt;КАК ПРОИСХОДИТ ЗАПИСЬ В КОЛЬЦЕВОЙ БУФЕР&lt;/font&gt;&lt;/span&gt;&lt;/div&gt;&lt;div style=&quot;text-align: left; font-size: 43px;&quot;&gt;&lt;span style=&quot;background-color: initial;&quot;&gt;&lt;font style=&quot;font-size: 43px;&quot;&gt;КАК ВЫЗЫВАЕТСЯ ПЛЭЙБЭК, И &lt;br&gt;ДАЛЬШЕ СВЯЗЬ С SCO_RECIEVE ПО ЦЕПОЧКЕ&lt;/font&gt;&lt;/span&gt;&lt;/div&gt;" style="text;html=1;align=center;verticalAlign=middle;resizable=0;points=[];autosize=1;strokeColor=none;fillColor=none;fontSize=21;" vertex="1" parent="1">
                    <mxGeometry x="-395" y="-1935" width="1070" height="220" as="geometry"/>
                </mxCell>
                <mxCell id="43" value="&lt;span style=&quot;font-size: 35px;&quot;&gt;Цикл записи в пины исследован,&lt;br&gt;&amp;nbsp;смотрим как записывается в цб&lt;/span&gt;" style="text;html=1;align=center;verticalAlign=middle;resizable=0;points=[];autosize=1;strokeColor=none;fillColor=none;fontSize=43;" vertex="1" parent="1">
                    <mxGeometry x="-565" y="-940" width="560" height="120" as="geometry"/>
                </mxCell>
                <mxCell id="49" style="edgeStyle=orthogonalEdgeStyle;html=1;strokeWidth=1;fontSize=35;exitX=0.679;exitY=0.938;exitDx=0;exitDy=0;exitPerimeter=0;" edge="1" parent="1" source="9">
                    <mxGeometry relative="1" as="geometry">
                        <mxPoint x="210" y="570" as="targetPoint"/>
                        <mxPoint x="640" y="380" as="sourcePoint"/>
                        <Array as="points">
                            <mxPoint x="640" y="470"/>
                            <mxPoint x="160" y="470"/>
                            <mxPoint x="160" y="570"/>
                        </Array>
                    </mxGeometry>
                </mxCell>
                <mxCell id="50" style="edgeStyle=orthogonalEdgeStyle;html=1;exitX=0.561;exitY=0.5;exitDx=0;exitDy=0;entryX=0.341;entryY=0.667;entryDx=0;entryDy=0;entryPerimeter=0;strokeWidth=2;fontSize=35;exitPerimeter=0;" edge="1" parent="1" source="47" target="47">
                    <mxGeometry relative="1" as="geometry"/>
                </mxCell>
                <mxCell id="35" style="edgeStyle=orthogonalEdgeStyle;html=1;fontSize=15;strokeWidth=4;fillColor=#f0a30a;strokeColor=#BD7000;" edge="1" parent="1" source="32">
                    <mxGeometry relative="1" as="geometry">
                        <mxPoint x="670" y="550" as="targetPoint"/>
                        <mxPoint x="657" y="-570" as="sourcePoint"/>
                        <Array as="points">
                            <mxPoint x="1060" y="-570"/>
                            <mxPoint x="1060" y="460"/>
                            <mxPoint x="670" y="460"/>
                        </Array>
                    </mxGeometry>
                </mxCell>
                <mxCell id="36" value="По своенй сути, в пины передается буфер, &lt;br&gt;который попадается в аргументы&amp;nbsp;&lt;br&gt;&lt;span style=&quot;color: rgb(123, 216, 143); font-family: &amp;quot;Ubuntu Mono&amp;quot;, Consolas, &amp;quot;Courier New&amp;quot;, monospace; font-size: 14px; text-align: left; background-color: rgb(34, 34, 34);&quot;&gt;audio_playback_callback&lt;/span&gt;&lt;br&gt;&amp;nbsp;" style="edgeLabel;html=1;align=center;verticalAlign=middle;resizable=0;points=[];fontSize=15;" vertex="1" connectable="0" parent="35">
                    <mxGeometry x="-0.0974" y="-2" relative="1" as="geometry">
                        <mxPoint as="offset"/>
                    </mxGeometry>
                </mxCell>
                <mxCell id="51" value="&lt;div style=&quot;color: rgb(247, 241, 255); background-color: rgb(34, 34, 34); font-family: &amp;quot;Ubuntu Mono&amp;quot;, Consolas, &amp;quot;Courier New&amp;quot;, monospace; font-weight: normal; font-size: 14px; line-height: 19px;&quot;&gt;&lt;div&gt;&lt;span style=&quot;color: #fc618d;font-style: italic;&quot;&gt;static&lt;/span&gt;&lt;span style=&quot;color: #f7f1ff;&quot;&gt; &lt;/span&gt;&lt;span style=&quot;color: #5ad4e6;font-style: italic;&quot;&gt;void&lt;/span&gt;&lt;span style=&quot;color: #f7f1ff;&quot;&gt; &lt;/span&gt;&lt;span style=&quot;color: #7bd88f;&quot;&gt;btstack_audio_esp32_driver_timer_handler&lt;/span&gt;&lt;span style=&quot;color: #8b888f;&quot;&gt;(&lt;/span&gt;&lt;span style=&quot;color: #5ad4e6;font-style: italic;&quot;&gt;btstack_timer_source_t&lt;/span&gt;&lt;span style=&quot;color: #f7f1ff;&quot;&gt; &lt;/span&gt;&lt;span style=&quot;color: #fc618d;&quot;&gt;*&lt;/span&gt;&lt;span style=&quot;color: #f7f1ff;&quot;&gt; &lt;/span&gt;&lt;span style=&quot;color: #fd9353;font-style: italic;&quot;&gt;ts&lt;/span&gt;&lt;span style=&quot;color: #8b888f;&quot;&gt;){&lt;/span&gt;&lt;/div&gt;&lt;div&gt;&lt;span style=&quot;color: #8b888f;&quot;&gt;&amp;nbsp; &amp;nbsp; &lt;/span&gt;&lt;span style=&quot;color: #69676c;font-style: italic;&quot;&gt;// read max 2 events from i2s event queue&lt;/span&gt;&lt;/div&gt;&lt;div&gt;&lt;span style=&quot;color: #f7f1ff;&quot;&gt;&amp;nbsp; &amp;nbsp; &lt;/span&gt;&lt;span style=&quot;color: #5ad4e6;font-style: italic;&quot;&gt;i2s_event_t&lt;/span&gt;&lt;span style=&quot;color: #f7f1ff;&quot;&gt; &lt;/span&gt;&lt;span style=&quot;color: #f7f1ff;&quot;&gt;i2s_event&lt;/span&gt;&lt;span style=&quot;color: #8b888f;&quot;&gt;;&lt;/span&gt;&lt;/div&gt;&lt;div&gt;&lt;span style=&quot;color: #f7f1ff;&quot;&gt;&amp;nbsp; &amp;nbsp; &lt;/span&gt;&lt;span style=&quot;color: #5ad4e6;font-style: italic;&quot;&gt;int&lt;/span&gt;&lt;span style=&quot;color: #f7f1ff;&quot;&gt; &lt;/span&gt;&lt;span style=&quot;color: #f7f1ff;&quot;&gt;i&lt;/span&gt;&lt;span style=&quot;color: #8b888f;&quot;&gt;;&lt;/span&gt;&lt;/div&gt;&lt;div&gt;&lt;span style=&quot;color: #f7f1ff;&quot;&gt;&amp;nbsp; &amp;nbsp; &lt;/span&gt;&lt;span style=&quot;color: #fc618d;&quot;&gt;for&lt;/span&gt;&lt;span style=&quot;color: #f7f1ff;&quot;&gt; &lt;/span&gt;&lt;span style=&quot;color: #8b888f;&quot;&gt;(&lt;/span&gt;&lt;span style=&quot;color: #f7f1ff;&quot;&gt;i&lt;/span&gt;&lt;span style=&quot;color: #fc618d;&quot;&gt;=&lt;/span&gt;&lt;span style=&quot;color: #948ae3;&quot;&gt;0&lt;/span&gt;&lt;span style=&quot;color: #8b888f;&quot;&gt;;&lt;/span&gt;&lt;span style=&quot;color: #f7f1ff;&quot;&gt;i&lt;/span&gt;&lt;span style=&quot;color: #fc618d;&quot;&gt;&amp;lt;&lt;/span&gt;&lt;span style=&quot;color: #948ae3;&quot;&gt;2&lt;/span&gt;&lt;span style=&quot;color: #8b888f;&quot;&gt;;&lt;/span&gt;&lt;span style=&quot;color: #f7f1ff;&quot;&gt;i&lt;/span&gt;&lt;span style=&quot;color: #fc618d;&quot;&gt;++&lt;/span&gt;&lt;span style=&quot;color: #8b888f;&quot;&gt;){&lt;/span&gt;&lt;/div&gt;&lt;div&gt;&lt;span style=&quot;color: #f7f1ff;&quot;&gt;&amp;nbsp; &amp;nbsp; &amp;nbsp; &amp;nbsp; &lt;/span&gt;&lt;span style=&quot;color: #fc618d;&quot;&gt;if&lt;/span&gt;&lt;span style=&quot;color: #8b888f;&quot;&gt;(&lt;/span&gt;&lt;span style=&quot;color: #f7f1ff;&quot;&gt; &lt;/span&gt;&lt;span style=&quot;color: #7bd88f;&quot;&gt;xQueueReceive&lt;/span&gt;&lt;span style=&quot;color: #8b888f;&quot;&gt;(&lt;/span&gt;&lt;span style=&quot;color: #f7f1ff;&quot;&gt; &lt;/span&gt;&lt;span style=&quot;color: #f7f1ff;&quot;&gt;btstack_audio_esp32_i2s_event_queue&lt;/span&gt;&lt;span style=&quot;color: #8b888f;&quot;&gt;,&lt;/span&gt;&lt;span style=&quot;color: #f7f1ff;&quot;&gt; &lt;/span&gt;&lt;span style=&quot;color: #fc618d;&quot;&gt;&amp;amp;&lt;/span&gt;&lt;span style=&quot;color: #f7f1ff;&quot;&gt;i2s_event&lt;/span&gt;&lt;span style=&quot;color: #8b888f;&quot;&gt;,&lt;/span&gt;&lt;span style=&quot;color: #f7f1ff;&quot;&gt; &lt;/span&gt;&lt;span style=&quot;color: #948ae3;&quot;&gt;0&lt;/span&gt;&lt;span style=&quot;color: #8b888f;&quot;&gt;)&lt;/span&gt;&lt;span style=&quot;color: #f7f1ff;&quot;&gt; &lt;/span&gt;&lt;span style=&quot;color: #fc618d;&quot;&gt;==&lt;/span&gt;&lt;span style=&quot;color: #f7f1ff;&quot;&gt; &lt;/span&gt;&lt;span style=&quot;color: #5ad4e6;&quot;&gt;false&lt;/span&gt;&lt;span style=&quot;color: #8b888f;&quot;&gt;)&lt;/span&gt;&lt;span style=&quot;color: #f7f1ff;&quot;&gt; &lt;/span&gt;&lt;span style=&quot;color: #fc618d;&quot;&gt;break&lt;/span&gt;&lt;span style=&quot;color: #8b888f;&quot;&gt;;&lt;/span&gt;&lt;/div&gt;&lt;div&gt;&lt;span style=&quot;color: #f7f1ff;&quot;&gt;&amp;nbsp; &amp;nbsp; &amp;nbsp; &amp;nbsp; &lt;/span&gt;&lt;span style=&quot;color: #fc618d;&quot;&gt;switch&lt;/span&gt;&lt;span style=&quot;color: #f7f1ff;&quot;&gt; &lt;/span&gt;&lt;span style=&quot;color: #8b888f;&quot;&gt;(&lt;/span&gt;&lt;span style=&quot;color: #f7f1ff;&quot;&gt;i2s_event&lt;/span&gt;&lt;span style=&quot;color: #8b888f;&quot;&gt;.&lt;/span&gt;&lt;span style=&quot;color: #f7f1ff;&quot;&gt;type&lt;/span&gt;&lt;span style=&quot;color: #8b888f;&quot;&gt;){&lt;/span&gt;&lt;/div&gt;&lt;div&gt;&lt;span style=&quot;color: #f7f1ff;&quot;&gt;&amp;nbsp; &amp;nbsp; &amp;nbsp; &amp;nbsp; &amp;nbsp; &amp;nbsp; &lt;/span&gt;&lt;span style=&quot;color: #fc618d;&quot;&gt;case&lt;/span&gt;&lt;span style=&quot;color: #f7f1ff;&quot;&gt; I2S_EVENT_TX_DONE&lt;/span&gt;&lt;span style=&quot;color: #8b888f;&quot;&gt;:&lt;/span&gt;&lt;/div&gt;&lt;div&gt;&lt;span style=&quot;color: #f7f1ff;&quot;&gt;&amp;nbsp; &amp;nbsp; &amp;nbsp; &amp;nbsp; &amp;nbsp; &amp;nbsp; &amp;nbsp; &amp;nbsp; &lt;/span&gt;&lt;span style=&quot;color: #5ad4e6;&quot;&gt;log_debug&lt;/span&gt;&lt;span style=&quot;color: #8b888f;&quot;&gt;(&lt;/span&gt;&lt;span style=&quot;color: #8b888f;&quot;&gt;&quot;&lt;/span&gt;&lt;span style=&quot;color: #fce566;&quot;&gt;I2S_EVENT_TX_DONE&lt;/span&gt;&lt;span style=&quot;color: #8b888f;&quot;&gt;&quot;&lt;/span&gt;&lt;span style=&quot;color: #8b888f;&quot;&gt;);&lt;/span&gt;&lt;/div&gt;&lt;div&gt;&lt;span style=&quot;color: #f7f1ff;&quot;&gt;&amp;nbsp; &amp;nbsp; &amp;nbsp; &amp;nbsp; &amp;nbsp; &amp;nbsp; &amp;nbsp; &amp;nbsp; &lt;/span&gt;&lt;span style=&quot;color: #7bd88f;&quot;&gt;btstack_audio_esp32_sink_fill_buffer&lt;/span&gt;&lt;span style=&quot;color: #8b888f;&quot;&gt;();&lt;/span&gt;&lt;/div&gt;&lt;div&gt;&lt;span style=&quot;color: #f7f1ff;&quot;&gt;&amp;nbsp; &amp;nbsp; &amp;nbsp; &amp;nbsp; &amp;nbsp; &amp;nbsp; &amp;nbsp; &amp;nbsp; &lt;/span&gt;&lt;span style=&quot;color: #fc618d;&quot;&gt;break&lt;/span&gt;&lt;span style=&quot;color: #8b888f;&quot;&gt;;&lt;/span&gt;&lt;/div&gt;&lt;div&gt;&lt;span style=&quot;color: #f7f1ff;&quot;&gt;&amp;nbsp; &amp;nbsp; &amp;nbsp; &amp;nbsp; &amp;nbsp; &amp;nbsp; &lt;/span&gt;&lt;span style=&quot;color: #fc618d;&quot;&gt;case&lt;/span&gt;&lt;span style=&quot;color: #f7f1ff;&quot;&gt; I2S_EVENT_RX_DONE&lt;/span&gt;&lt;span style=&quot;color: #8b888f;&quot;&gt;:&lt;/span&gt;&lt;/div&gt;&lt;div&gt;&lt;span style=&quot;color: #f7f1ff;&quot;&gt;&amp;nbsp; &amp;nbsp; &amp;nbsp; &amp;nbsp; &amp;nbsp; &amp;nbsp; &amp;nbsp; &amp;nbsp; &lt;/span&gt;&lt;span style=&quot;color: #5ad4e6;&quot;&gt;log_debug&lt;/span&gt;&lt;span style=&quot;color: #8b888f;&quot;&gt;(&lt;/span&gt;&lt;span style=&quot;color: #8b888f;&quot;&gt;&quot;&lt;/span&gt;&lt;span style=&quot;color: #fce566;&quot;&gt;I2S_EVENT_RX_DONE&lt;/span&gt;&lt;span style=&quot;color: #8b888f;&quot;&gt;&quot;&lt;/span&gt;&lt;span style=&quot;color: #8b888f;&quot;&gt;);&lt;/span&gt;&lt;/div&gt;&lt;div&gt;&lt;span style=&quot;color: #f7f1ff;&quot;&gt;&amp;nbsp; &amp;nbsp; &amp;nbsp; &amp;nbsp; &amp;nbsp; &amp;nbsp; &amp;nbsp; &amp;nbsp; &lt;/span&gt;&lt;span style=&quot;color: #7bd88f;&quot;&gt;btstack_audio_esp32_source_process_buffer&lt;/span&gt;&lt;span style=&quot;color: #8b888f;&quot;&gt;();&lt;/span&gt;&lt;/div&gt;&lt;div&gt;&lt;span style=&quot;color: #f7f1ff;&quot;&gt;&amp;nbsp; &amp;nbsp; &amp;nbsp; &amp;nbsp; &amp;nbsp; &amp;nbsp; &amp;nbsp; &amp;nbsp; &lt;/span&gt;&lt;span style=&quot;color: #fc618d;&quot;&gt;break&lt;/span&gt;&lt;span style=&quot;color: #8b888f;&quot;&gt;;&lt;/span&gt;&lt;/div&gt;&lt;div&gt;&lt;span style=&quot;color: #f7f1ff;&quot;&gt;&amp;nbsp; &amp;nbsp; &amp;nbsp; &amp;nbsp; &amp;nbsp; &amp;nbsp; &lt;/span&gt;&lt;span style=&quot;color: #fc618d;&quot;&gt;default&lt;/span&gt;&lt;span style=&quot;color: #8b888f;&quot;&gt;:&lt;/span&gt;&lt;/div&gt;&lt;div&gt;&lt;span style=&quot;color: #f7f1ff;&quot;&gt;&amp;nbsp; &amp;nbsp; &amp;nbsp; &amp;nbsp; &amp;nbsp; &amp;nbsp; &amp;nbsp; &amp;nbsp; &lt;/span&gt;&lt;span style=&quot;color: #fc618d;&quot;&gt;break&lt;/span&gt;&lt;span style=&quot;color: #8b888f;&quot;&gt;;&lt;/span&gt;&lt;/div&gt;&lt;div&gt;&lt;span style=&quot;color: #f7f1ff;&quot;&gt;&amp;nbsp; &amp;nbsp; &amp;nbsp; &amp;nbsp; &lt;/span&gt;&lt;span style=&quot;color: #8b888f;&quot;&gt;}&lt;/span&gt;&lt;/div&gt;&lt;div&gt;&lt;span style=&quot;color: #f7f1ff;&quot;&gt;&amp;nbsp; &amp;nbsp; &lt;/span&gt;&lt;span style=&quot;color: #8b888f;&quot;&gt;}&lt;/span&gt;&lt;/div&gt;&lt;br&gt;&lt;div&gt;&lt;span style=&quot;color: #8b888f;&quot;&gt;&amp;nbsp; &amp;nbsp; &lt;/span&gt;&lt;span style=&quot;color: #69676c;font-style: italic;&quot;&gt;// re-set timer&lt;/span&gt;&lt;/div&gt;&lt;div&gt;&lt;span style=&quot;color: #f7f1ff;&quot;&gt;&amp;nbsp; &amp;nbsp; &lt;/span&gt;&lt;span style=&quot;color: #7bd88f;&quot;&gt;btstack_run_loop_set_timer&lt;/span&gt;&lt;span style=&quot;color: #8b888f;&quot;&gt;(&lt;/span&gt;&lt;span style=&quot;color: #fd9353;font-style: italic;&quot;&gt;ts&lt;/span&gt;&lt;span style=&quot;color: #8b888f;&quot;&gt;,&lt;/span&gt;&lt;span style=&quot;color: #f7f1ff;&quot;&gt; &lt;/span&gt;&lt;span style=&quot;color: #5ad4e6;&quot;&gt;DRIVER_POLL_INTERVAL_MS&lt;/span&gt;&lt;span style=&quot;color: #8b888f;&quot;&gt;);&lt;/span&gt;&lt;/div&gt;&lt;div&gt;&lt;span style=&quot;color: #f7f1ff;&quot;&gt;&amp;nbsp; &amp;nbsp; &lt;/span&gt;&lt;span style=&quot;color: #7bd88f;&quot;&gt;btstack_run_loop_add_timer&lt;/span&gt;&lt;span style=&quot;color: #8b888f;&quot;&gt;(&lt;/span&gt;&lt;span style=&quot;color: #fd9353;font-style: italic;&quot;&gt;ts&lt;/span&gt;&lt;span style=&quot;color: #8b888f;&quot;&gt;);&lt;/span&gt;&lt;/div&gt;&lt;div&gt;&lt;span style=&quot;color: #8b888f;&quot;&gt;}&lt;/span&gt;&lt;/div&gt;&lt;/div&gt;" style="text;whiteSpace=wrap;html=1;fontSize=35;" vertex="1" parent="1">
                    <mxGeometry x="-545" y="-300" width="560" height="500" as="geometry"/>
                </mxCell>
                <mxCell id="52" style="edgeStyle=orthogonalEdgeStyle;html=1;strokeWidth=3;fontSize=35;entryX=0.122;entryY=0.167;entryDx=0;entryDy=0;entryPerimeter=0;" edge="1" parent="1" target="47">
                    <mxGeometry relative="1" as="geometry">
                        <mxPoint x="70" y="531" as="targetPoint"/>
                        <mxPoint x="-150" y="-80" as="sourcePoint"/>
                        <Array as="points">
                            <mxPoint x="60" y="-80"/>
                            <mxPoint x="60" y="531"/>
                        </Array>
                    </mxGeometry>
                </mxCell>
                <mxCell id="53" value="&lt;font style=&quot;font-size: 28px;&quot;&gt;Если один буфер был записан/считан,&lt;br&gt;&amp;nbsp;вызывает функцию записи/чтения следующего буфера&lt;/font&gt;" style="text;html=1;align=center;verticalAlign=middle;resizable=0;points=[];autosize=1;strokeColor=none;fillColor=none;fontSize=35;" vertex="1" parent="1">
                    <mxGeometry x="-640" y="-390" width="750" height="100" as="geometry"/>
                </mxCell>
                <mxCell id="61" style="edgeStyle=orthogonalEdgeStyle;html=1;exitX=0.25;exitY=1;exitDx=0;exitDy=0;strokeWidth=1;fontSize=37;entryX=0.025;entryY=0.908;entryDx=0;entryDy=0;entryPerimeter=0;" edge="1" parent="1" source="59" target="59">
                    <mxGeometry relative="1" as="geometry">
                        <mxPoint x="-1250" y="-580" as="targetPoint"/>
                        <mxPoint x="-1150" y="-520.0000000000002" as="sourcePoint"/>
                        <Array as="points">
                            <mxPoint x="-1150" y="-500"/>
                            <mxPoint x="-1270" y="-500"/>
                            <mxPoint x="-1270" y="-580"/>
                        </Array>
                    </mxGeometry>
                </mxCell>
                <mxCell id="74" style="edgeStyle=orthogonalEdgeStyle;html=1;exitX=0.5;exitY=1;exitDx=0;exitDy=0;strokeWidth=1;fontSize=37;entryX=0.226;entryY=0.5;entryDx=0;entryDy=0;entryPerimeter=0;" edge="1" parent="1" source="67" target="64">
                    <mxGeometry relative="1" as="geometry">
                        <mxPoint x="-1300" y="-1310" as="targetPoint"/>
                        <Array as="points">
                            <mxPoint x="-1085" y="-1440"/>
                            <mxPoint x="-1310" y="-1440"/>
                            <mxPoint x="-1310" y="-1310"/>
                        </Array>
                    </mxGeometry>
                </mxCell>
                <mxCell id="77" style="edgeStyle=orthogonalEdgeStyle;html=1;strokeWidth=1;fontSize=37;exitX=0.6;exitY=0.667;exitDx=0;exitDy=0;exitPerimeter=0;" edge="1" parent="1" source="67">
                    <mxGeometry relative="1" as="geometry">
                        <mxPoint x="-930" y="-1170" as="targetPoint"/>
                        <mxPoint x="-1050" y="-1490" as="sourcePoint"/>
                        <Array as="points">
                            <mxPoint x="-1050" y="-1440"/>
                            <mxPoint x="-890" y="-1440"/>
                            <mxPoint x="-890" y="-1200"/>
                            <mxPoint x="-930" y="-1200"/>
                        </Array>
                    </mxGeometry>
                </mxCell>
                <mxCell id="69" style="edgeStyle=orthogonalEdgeStyle;html=1;exitX=0.571;exitY=0.222;exitDx=0;exitDy=0;entryX=0.571;entryY=0.556;entryDx=0;entryDy=0;entryPerimeter=0;strokeWidth=1;fontSize=37;exitPerimeter=0;" edge="1" parent="1" source="67" target="67">
                    <mxGeometry relative="1" as="geometry"/>
                </mxCell>
                <mxCell id="78" style="edgeStyle=orthogonalEdgeStyle;html=1;exitX=0.25;exitY=1;exitDx=0;exitDy=0;entryX=0.211;entryY=0.333;entryDx=0;entryDy=0;entryPerimeter=0;strokeWidth=1;fontSize=37;" edge="1" parent="1" source="72" target="70">
                    <mxGeometry relative="1" as="geometry"/>
                </mxCell>
                <mxCell id="79" style="edgeStyle=orthogonalEdgeStyle;html=1;entryX=0.579;entryY=0.333;entryDx=0;entryDy=0;entryPerimeter=0;strokeWidth=1;fontSize=37;exitX=0.358;exitY=0.846;exitDx=0;exitDy=0;exitPerimeter=0;" edge="1" parent="1" source="72" target="70">
                    <mxGeometry relative="1" as="geometry"/>
                </mxCell>
                <mxCell id="80" style="edgeStyle=orthogonalEdgeStyle;html=1;exitX=0.5;exitY=1;exitDx=0;exitDy=0;entryX=0.842;entryY=0.333;entryDx=0;entryDy=0;entryPerimeter=0;strokeWidth=1;fontSize=37;" edge="1" parent="1" source="72" target="70">
                    <mxGeometry relative="1" as="geometry"/>
                </mxCell>
                <mxCell id="72" value="&lt;div style=&quot;color: rgb(247, 241, 255); background-color: rgb(34, 34, 34); font-family: &amp;quot;Ubuntu Mono&amp;quot;, Consolas, &amp;quot;Courier New&amp;quot;, monospace; font-weight: normal; font-size: 14px; line-height: 19px;&quot;&gt;&lt;div&gt;&lt;span style=&quot;color: #fc618d;&quot;&gt;case&lt;/span&gt;&lt;span style=&quot;color: #f7f1ff;&quot;&gt; HCI_SCO_DATA_PACKET&lt;/span&gt;&lt;span style=&quot;color: #8b888f;&quot;&gt;:&lt;/span&gt;&lt;/div&gt;&lt;div&gt;&lt;span style=&quot;color: #f7f1ff;&quot;&gt;&amp;nbsp; &amp;nbsp; &amp;nbsp; &amp;nbsp; &amp;nbsp; &amp;nbsp; &lt;/span&gt;&lt;span style=&quot;color: #fc618d;&quot;&gt;if&lt;/span&gt;&lt;span style=&quot;color: #f7f1ff;&quot;&gt; &lt;/span&gt;&lt;span style=&quot;color: #8b888f;&quot;&gt;(&lt;/span&gt;&lt;span style=&quot;color: #7bd88f;&quot;&gt;READ_SCO_CONNECTION_HANDLE&lt;/span&gt;&lt;span style=&quot;color: #8b888f;&quot;&gt;(&lt;/span&gt;&lt;span style=&quot;color: #f7f1ff;&quot;&gt;event&lt;/span&gt;&lt;span style=&quot;color: #8b888f;&quot;&gt;)&lt;/span&gt;&lt;span style=&quot;color: #f7f1ff;&quot;&gt; &lt;/span&gt;&lt;span style=&quot;color: #fc618d;&quot;&gt;!=&lt;/span&gt;&lt;span style=&quot;color: #f7f1ff;&quot;&gt; sco_handle&lt;/span&gt;&lt;span style=&quot;color: #8b888f;&quot;&gt;)&lt;/span&gt;&lt;span style=&quot;color: #f7f1ff;&quot;&gt; &lt;/span&gt;&lt;span style=&quot;color: #fc618d;&quot;&gt;break&lt;/span&gt;&lt;span style=&quot;color: #8b888f;&quot;&gt;;&lt;/span&gt;&lt;/div&gt;&lt;div&gt;&lt;span style=&quot;color: #f7f1ff;&quot;&gt;&amp;nbsp; &amp;nbsp; &amp;nbsp; &amp;nbsp; &amp;nbsp; &amp;nbsp; &lt;/span&gt;&lt;span style=&quot;color: #7bd88f;&quot;&gt;sco_receive&lt;/span&gt;&lt;span style=&quot;color: #8b888f;&quot;&gt;(&lt;/span&gt;&lt;span style=&quot;color: #f7f1ff;&quot;&gt;event&lt;/span&gt;&lt;span style=&quot;color: #8b888f;&quot;&gt;,&lt;/span&gt;&lt;span style=&quot;color: #f7f1ff;&quot;&gt; event_size&lt;/span&gt;&lt;span style=&quot;color: #8b888f;&quot;&gt;);&lt;/span&gt;&lt;/div&gt;&lt;/div&gt;" style="text;whiteSpace=wrap;html=1;fontSize=37;" vertex="1" parent="1">
                    <mxGeometry x="-1260" y="-1760" width="530" height="65" as="geometry"/>
                </mxCell>
                <mxCell id="76" style="edgeStyle=orthogonalEdgeStyle;html=1;strokeWidth=1;fontSize=37;exitX=0.839;exitY=0.438;exitDx=0;exitDy=0;exitPerimeter=0;" edge="1" parent="1" source="64">
                    <mxGeometry relative="1" as="geometry">
                        <mxPoint x="-1130" y="-1160" as="targetPoint"/>
                        <mxPoint x="-999.9100000000001" y="-1319.92" as="sourcePoint"/>
                        <Array as="points">
                            <mxPoint x="-940" y="-1320"/>
                            <mxPoint x="-940" y="-1205"/>
                            <mxPoint x="-1130" y="-1205"/>
                        </Array>
                    </mxGeometry>
                </mxCell>
                <mxCell id="87" style="edgeStyle=orthogonalEdgeStyle;html=1;exitX=0.733;exitY=0.8;exitDx=0;exitDy=0;strokeWidth=1;fontSize=37;exitPerimeter=0;" edge="1" parent="1" source="84">
                    <mxGeometry relative="1" as="geometry">
                        <mxPoint x="-1150" y="-1750" as="targetPoint"/>
                        <Array as="points"/>
                    </mxGeometry>
                </mxCell>
                <mxCell id="86" style="edgeStyle=orthogonalEdgeStyle;html=1;exitX=0.137;exitY=0.998;exitDx=0;exitDy=0;strokeWidth=1;fontSize=37;exitPerimeter=0;" edge="1" parent="1" source="84">
                    <mxGeometry relative="1" as="geometry">
                        <mxPoint x="-1240" y="-1750" as="targetPoint"/>
                        <Array as="points">
                            <mxPoint x="-1239" y="-1790"/>
                            <mxPoint x="-1240" y="-1790"/>
                        </Array>
                    </mxGeometry>
                </mxCell>
                <mxCell id="89" style="edgeStyle=orthogonalEdgeStyle;html=1;exitX=0.338;exitY=0.667;exitDx=0;exitDy=0;entryX=0.669;entryY=0.6;entryDx=0;entryDy=0;entryPerimeter=0;strokeWidth=1;fontSize=37;exitPerimeter=0;" edge="1" parent="1" source="88" target="84">
                    <mxGeometry relative="1" as="geometry"/>
                </mxCell>
                <mxCell id="90" style="edgeStyle=orthogonalEdgeStyle;html=1;exitX=0.75;exitY=0.667;exitDx=0;exitDy=0;strokeWidth=1;fontSize=37;exitPerimeter=0;" edge="1" parent="1" source="88">
                    <mxGeometry relative="1" as="geometry">
                        <mxPoint x="-1080" y="-1710" as="targetPoint"/>
                        <Array as="points">
                            <mxPoint x="-840" y="-1830"/>
                            <mxPoint x="-1080" y="-1830"/>
                        </Array>
                    </mxGeometry>
                </mxCell>
                <mxCell id="91" style="edgeStyle=orthogonalEdgeStyle;html=1;exitX=0.941;exitY=0.667;exitDx=0;exitDy=0;entryX=0.491;entryY=0.769;entryDx=0;entryDy=0;entryPerimeter=0;strokeWidth=1;fontSize=37;exitPerimeter=0;" edge="1" parent="1" source="88" target="72">
                    <mxGeometry relative="1" as="geometry">
                        <Array as="points">
                            <mxPoint x="-710" y="-1790"/>
                            <mxPoint x="-1000" y="-1790"/>
                        </Array>
                    </mxGeometry>
                </mxCell>
                <mxCell id="88" value="&lt;div style=&quot;color: rgb(247, 241, 255); background-color: rgb(34, 34, 34); font-family: &amp;quot;Ubuntu Mono&amp;quot;, Consolas, &amp;quot;Courier New&amp;quot;, monospace; font-weight: normal; font-size: 14px; line-height: 19px;&quot;&gt;&lt;div&gt;&lt;span style=&quot;color: #5ad4e6;font-style: italic;&quot;&gt;void&lt;/span&gt;&lt;span style=&quot;color: #f7f1ff;&quot;&gt; &lt;/span&gt;&lt;span style=&quot;color: #7bd88f;&quot;&gt;packet_handler&lt;/span&gt;&lt;span style=&quot;color: #8b888f;&quot;&gt;(&lt;/span&gt;&lt;span style=&quot;color: #5ad4e6;font-style: italic;&quot;&gt;uint8_t&lt;/span&gt;&lt;span style=&quot;color: #f7f1ff;&quot;&gt; &lt;/span&gt;&lt;span style=&quot;color: #fd9353;font-style: italic;&quot;&gt;packet_type&lt;/span&gt;&lt;span style=&quot;color: #8b888f;&quot;&gt;,&lt;/span&gt;&lt;span style=&quot;color: #f7f1ff;&quot;&gt; &lt;/span&gt;&lt;span style=&quot;color: #5ad4e6;font-style: italic;&quot;&gt;uint16_t&lt;/span&gt;&lt;span style=&quot;color: #f7f1ff;&quot;&gt; &lt;/span&gt;&lt;span style=&quot;color: #fd9353;font-style: italic;&quot;&gt;channel&lt;/span&gt;&lt;span style=&quot;color: #8b888f;&quot;&gt;,&lt;/span&gt;&lt;span style=&quot;color: #f7f1ff;&quot;&gt; &lt;/span&gt;&lt;span style=&quot;color: #5ad4e6;font-style: italic;&quot;&gt;uint8_t&lt;/span&gt;&lt;span style=&quot;color: #f7f1ff;&quot;&gt; &lt;/span&gt;&lt;span style=&quot;color: #fc618d;&quot;&gt;*&lt;/span&gt;&lt;span style=&quot;color: #f7f1ff;&quot;&gt; &lt;/span&gt;&lt;span style=&quot;color: #fd9353;font-style: italic;&quot;&gt;event&lt;/span&gt;&lt;span style=&quot;color: #8b888f;&quot;&gt;,&lt;/span&gt;&lt;span style=&quot;color: #f7f1ff;&quot;&gt; &lt;/span&gt;&lt;span style=&quot;color: #5ad4e6;font-style: italic;&quot;&gt;uint16_t&lt;/span&gt;&lt;span style=&quot;color: #f7f1ff;&quot;&gt; &lt;/span&gt;&lt;span style=&quot;color: #fd9353;font-style: italic;&quot;&gt;event_size&lt;/span&gt;&lt;span style=&quot;color: #8b888f;&quot;&gt;)&lt;/span&gt;&lt;/div&gt;&lt;/div&gt;" style="text;whiteSpace=wrap;html=1;fontSize=37;" vertex="1" parent="1">
                    <mxGeometry x="-1335" y="-1890" width="680" height="30" as="geometry"/>
                </mxCell>
                <mxCell id="95" style="edgeStyle=orthogonalEdgeStyle;html=1;exitX=0.5;exitY=1;exitDx=0;exitDy=0;entryX=0.125;entryY=0.333;entryDx=0;entryDy=0;entryPerimeter=0;strokeWidth=1;fontSize=37;" edge="1" parent="1" source="94" target="88">
                    <mxGeometry relative="1" as="geometry">
                        <Array as="points">
                            <mxPoint x="-1112" y="-1930"/>
                            <mxPoint x="-1250" y="-1930"/>
                        </Array>
                    </mxGeometry>
                </mxCell>
                <mxCell id="96" style="edgeStyle=orthogonalEdgeStyle;html=1;exitX=1;exitY=0.25;exitDx=0;exitDy=0;strokeWidth=1;fontSize=37;entryX=0.125;entryY=0.667;entryDx=0;entryDy=0;entryPerimeter=0;" edge="1" parent="1" source="94" target="88">
                    <mxGeometry relative="1" as="geometry">
                        <mxPoint x="-880" y="-1910" as="targetPoint"/>
                        <Array as="points">
                            <mxPoint x="-870" y="-2045"/>
                            <mxPoint x="-870" y="-1900"/>
                            <mxPoint x="-1250" y="-1900"/>
                        </Array>
                    </mxGeometry>
                </mxCell>
                <mxCell id="97" style="edgeStyle=orthogonalEdgeStyle;html=1;exitX=1;exitY=0.5;exitDx=0;exitDy=0;entryX=0.154;entryY=0.667;entryDx=0;entryDy=0;entryPerimeter=0;strokeWidth=1;fontSize=37;" edge="1" parent="1" source="94" target="88">
                    <mxGeometry relative="1" as="geometry">
                        <Array as="points">
                            <mxPoint x="-880" y="-2010"/>
                            <mxPoint x="-880" y="-1920"/>
                            <mxPoint x="-1230" y="-1920"/>
                        </Array>
                    </mxGeometry>
                </mxCell>
                <mxCell id="94" value="&lt;div style=&quot;color: rgb(247, 241, 255); background-color: rgb(34, 34, 34); font-family: &amp;quot;Ubuntu Mono&amp;quot;, Consolas, &amp;quot;Courier New&amp;quot;, monospace; font-weight: normal; font-size: 14px; line-height: 19px;&quot;&gt;&lt;div&gt;&lt;span style=&quot;color: #69676c;font-style: italic;&quot;&gt;// register for HCI events and SCO packets&lt;/span&gt;&lt;/div&gt;&lt;div&gt;&lt;span style=&quot;color: #f7f1ff;&quot;&gt;&amp;nbsp; &amp;nbsp; &lt;/span&gt;&lt;span style=&quot;color: #f7f1ff;&quot;&gt;hci_event_callback_registration&lt;/span&gt;&lt;span style=&quot;color: #8b888f;&quot;&gt;.&lt;/span&gt;&lt;span style=&quot;color: #f7f1ff;&quot;&gt;callback&lt;/span&gt;&lt;span style=&quot;color: #f7f1ff;&quot;&gt; &lt;/span&gt;&lt;span style=&quot;color: #fc618d;&quot;&gt;=&lt;/span&gt;&lt;span style=&quot;color: #f7f1ff;&quot;&gt; &lt;/span&gt;&lt;span style=&quot;color: #fc618d;&quot;&gt;&amp;amp;&lt;/span&gt;&lt;span style=&quot;color: #7bd88f;&quot;&gt;packet_handler&lt;/span&gt;&lt;span style=&quot;color: #8b888f;&quot;&gt;;&lt;/span&gt;&lt;/div&gt;&lt;div&gt;&lt;span style=&quot;color: #f7f1ff;&quot;&gt;&amp;nbsp; &amp;nbsp; &lt;/span&gt;&lt;span style=&quot;color: #7bd88f;&quot;&gt;hci_add_event_handler&lt;/span&gt;&lt;span style=&quot;color: #8b888f;&quot;&gt;(&lt;/span&gt;&lt;span style=&quot;color: #fc618d;&quot;&gt;&amp;amp;&lt;/span&gt;&lt;span style=&quot;color: #f7f1ff;&quot;&gt;hci_event_callback_registration&lt;/span&gt;&lt;span style=&quot;color: #8b888f;&quot;&gt;);&lt;/span&gt;&lt;/div&gt;&lt;div&gt;&lt;span style=&quot;color: #f7f1ff;&quot;&gt;&amp;nbsp; &amp;nbsp; &lt;/span&gt;&lt;span style=&quot;color: #7bd88f;&quot;&gt;hci_register_sco_packet_handler&lt;/span&gt;&lt;span style=&quot;color: #8b888f;&quot;&gt;(&lt;/span&gt;&lt;span style=&quot;color: #fc618d;&quot;&gt;&amp;amp;&lt;/span&gt;&lt;span style=&quot;color: #7bd88f;&quot;&gt;packet_handler&lt;/span&gt;&lt;span style=&quot;color: #8b888f;&quot;&gt;);&lt;/span&gt;&lt;/div&gt;&lt;br&gt;&lt;div&gt;&lt;span style=&quot;color: #8b888f;&quot;&gt;&amp;nbsp; &amp;nbsp; &lt;/span&gt;&lt;span style=&quot;color: #69676c;font-style: italic;&quot;&gt;// register for HFP events&lt;/span&gt;&lt;/div&gt;&lt;div&gt;&lt;span style=&quot;color: #f7f1ff;&quot;&gt;&amp;nbsp; &amp;nbsp; &lt;/span&gt;&lt;span style=&quot;color: #7bd88f;&quot;&gt;hfp_ag_register_packet_handler&lt;/span&gt;&lt;span style=&quot;color: #8b888f;&quot;&gt;(&lt;/span&gt;&lt;span style=&quot;color: #fc618d;&quot;&gt;&amp;amp;&lt;/span&gt;&lt;span style=&quot;color: #7bd88f;&quot;&gt;packet_handler&lt;/span&gt;&lt;span style=&quot;color: #8b888f;&quot;&gt;);&lt;/span&gt;&lt;span style=&quot;color: #f7f1ff;&quot;&gt; &lt;/span&gt;&lt;/div&gt;&lt;/div&gt;" style="text;whiteSpace=wrap;html=1;fontSize=37;" vertex="1" parent="1">
                    <mxGeometry x="-1335" y="-2080" width="445" height="140" as="geometry"/>
                </mxCell>
            </root>
        </mxGraphModel>
    </diagram>
</mxfile>